<?xml version="1.0" encoding="utf-8"?>
<!-- Generator: Adobe Illustrator 16.0.0, SVG Export Plug-In . SVG Version: 6.00 Build 0)  -->
<!DOCTYPE svg PUBLIC "-//W3C//DTD SVG 1.1//EN" "http://www.w3.org/Graphics/SVG/1.1/DTD/svg11.dtd">
<svg version="1.1" id="Layer_1" xmlns="http://www.w3.org/2000/svg" xmlns:xlink="http://www.w3.org/1999/xlink" x="0px" y="0px"
	 width="612px" height="792px" viewBox="0 0 612 792" enable-background="new 0 0 612 792" xml:space="preserve">
<g>
	<g>
		<path fill="#FFFFFF" d="M644.163,1054.326c-221.666,0-443.332,0-664.997,0c0-399.22,0-798.441,0-1197.661
			c221.666,0,443.331,0,664.997,0C644.163,255.885,644.163,655.106,644.163,1054.326z M240.602,759.42
			c-0.144,2.229,1.606,3.132,4.401,2.971c6.61-0.382,13.647-9.008,13.065-15.593c-0.315-3.575-0.347-7.351,0.45-10.814
			c2.335-10.164,2.595-20.416,2.074-30.721c-0.239-4.729-1.875-9.526-1.361-14.124c0.768-6.86,2.382-13.73,4.524-20.309
			c3.457-10.617,7.386-21.102,11.579-31.453c4.459-11.011,5.396-22.267,3.915-33.904c-0.854-6.699-1.753-13.413,1.091-19.971
			c0.634-1.462,0.706-3.271,0.646-4.906c-0.13-3.656,1.006-6.771,3.503-9.374c6.525-6.802,8.132-14.964,6.838-23.996
			c-0.563-3.927-1.148-7.846,1.636-11.387c0.842-1.071,1.173-2.629,1.484-4.021c2.823-12.614,6.2-25.074,6.732-38.17
			c0.367-9.003,0.328-17.971,3.891-26.929c4.307-10.825,6.461-22.577,4.626-34.543c-0.04-0.263,0.235-0.573,0.309-0.739
			c3.248-0.476,6.364-0.933,9.734-1.427c-0.276,1.547-0.594,2.918-0.76,4.307c-1.516,12.729,1.348,24.862,5.034,36.888
			c0.415,1.354,0.875,2.762,0.907,4.152c0.447,19.408,4.076,38.299,9.848,56.739c1.512,4.83,1.864,9.205,1.142,14.145
			c-1.503,10.281,0.253,19.643,9.419,26.331c4.469,3.258,4.803,8.199,4.449,13.221c-0.085,1.208-0.402,2.401-0.458,3.607
			c-0.354,7.851-0.903,15.701-0.928,23.555c-0.023,7.739,0.091,15.583,3.222,22.863c3.059,7.111,6.328,14.144,9.763,21.084
			c7.464,15.086,10.355,30.873,8.479,47.661c-1.167,10.453-1.813,20.948,1.437,31.313c0.82,2.618,0.45,5.74,0.107,8.568
			c-1.083,8.948,6.726,17.94,15.758,17.912c2.376-0.008,4.526-0.274,4.44-3.678c6.029,0.169,11.777-0.28,16.69-3.974
			c0.24-0.183,0.64-0.145,0.956-0.235c4.582-1.312,5.437-2.974,3.064-7.244c-2.521-4.538-5.563-8.781-8.157-13.28
			c-2.189-3.801-4.29-7.686-6.029-11.705c-2.586-5.979-4.953-12.061-7.133-18.197c-0.811-2.281-1.439-4.936-1.104-7.268
			c2.474-17.188,5.204-34.341,7.871-51.503c2.883-18.552,1.202-36.543-5.575-54.185c-2.629-6.846-4.619-14.173-5.4-21.441
			c-1.68-15.627-2.402-31.354-3.456-47.048c-0.096-1.406-0.118-3.025,0.463-4.24c5.864-12.232,7.565-25.366,8.711-38.655
			c0.914-10.617,1.528-21.21-0.102-31.821c-3.284-21.385-8.745-42.255-15.336-62.81c-2.826-8.812-4.555-17.582-4.695-26.856
			c-0.208-13.733-0.203-27.566-1.913-41.153c-2.019-16.039,3.747-29.207,11.932-42.121c0.175,0.211,0.353,0.336,0.401,0.5
			c2.694,8.876,4.615,18.044,9.873,25.949c0.22,0.33,0.219,0.833,0.245,1.261c0.203,3.196,0.287,6.402,0.595,9.586
			c1.864,19.349,11.196,34.635,26.419,46.16c10.29,7.791,19.113,16.853,26.66,27.156c5.055,6.899,8.207,14.605,7.046,23.605
			c-0.447,3.464-0.04,7.07,0.251,10.591c0.618,7.478,1.284,14.957,2.206,22.402c0.376,3.034,1.309,6.035,2.319,8.937
			c0.307,0.877,1.729,1.365,2.64,2.031c0.56-0.86,1.427-1.66,1.614-2.596c0.392-1.942,0.379-3.963,0.61-5.94
			c0.372-3.175,0.808-6.344,1.217-9.515c0.301-0.013,0.602-0.023,0.901-0.035c1.722,3.813,3.364,7.662,5.184,11.428
			c2.403,4.977,4.83,9.95,7.51,14.779c0.618,1.113,2.304,1.636,3.497,2.431c0.429-1.297,1.335-2.647,1.193-3.879
			c-0.401-3.502-1.106-6.983-1.922-10.418c-1.062-4.462-2.343-8.872-3.529-13.305c1.731,2.211,2.691,4.682,3.868,7.043
			c2.27,4.55,4.438,9.179,7.128,13.474c0.911,1.455,3.273,2.002,4.973,2.965c0.499-1.793,1.524-3.631,1.376-5.369
			c-0.238-2.83-1.166-5.616-1.949-8.38c-0.889-3.123-1.938-6.201-2.915-9.298c1.05,0.44,1.514,1.251,2.204,1.735
			c3.589,2.519,7.022,5.396,10.932,7.274c3.05,1.466,5.197-0.68,4.139-3.837c-0.86-2.565-2.269-5.05-3.877-7.245
			c-3.076-4.193-6.489-8.14-9.721-12.222c-1.846-2.332-3.243-4.83-2.369-8.563c2.633,2.246,4.781,4.313,7.172,6.043
			c1.787,1.296,4.002,3.506,6.054,1.376c0.737-0.768-0.689-3.638-1.164-5.538c-0.077-0.307-0.355-0.557-0.521-0.844
			c-4.379-7.601-11.217-12.465-18.719-16.457c-5.71-3.041-9.823-7.394-12.589-13.19c-2.764-5.793-5.857-11.433-8.489-17.283
			c-3.893-8.651-8.891-16.915-10.181-26.548c-0.867-6.475-2.725-12.655-6.431-17.977c-5.372-7.713-11.231-15.085-16.869-22.614
			c-0.507-0.677-1.221-1.399-1.307-2.161c-1.145-10.196-5.527-19.329-9.503-28.553c-1.824-4.229-4.201-8.337-6.994-11.991
			c-1.812-2.371-2.281-4.456-1.977-7.235c0.844-7.704,1.583-15.392-0.069-23.144c-4.958-23.259-20.802-35.534-44.729-34.484
			c-0.93,0.041-1.952-0.23-2.807-0.626c-3.896-1.808-7.65-3.961-11.638-5.527c-6.786-2.666-11.14-7.346-12.104-14.537
			c-0.821-6.129-1.373-12.372-1.15-18.532c0.117-3.237-0.104-7.732,5.23-8.469c1.121-0.154,2.162-1.805,2.999-2.943
			c3.405-4.633,3.339-9.903,2.694-15.292c-0.22-1.836-0.342-3.741-0.106-5.563c1.318-10.234,0.062-20.124-3.916-29.618
			c-1.811-4.323-4.854-7.992-9.16-9.708c-14.297-5.699-28.538-5.946-42.085,2.276c-6.148,3.731-9.517,9.474-9.8,16.792
			c-0.225,5.757-0.338,11.519-0.516,17.277c-0.026,0.875,0.047,1.817-0.244,2.611c-3.61,9.854-1.688,17.252,6.233,23.981
			c0.71,0.604,1.556,1.447,1.681,2.277c0.853,5.662,2.014,11.337,2.15,17.031c0.227,9.406-4.13,16.514-12.337,21.276
			c-3.987,2.313-7.548,5.782-11.807,7.093c-4.405,1.357-9.449,0.489-14.165,1.027c-11.808,1.349-21.997,5.682-28.766,16.172
			c-3.72,5.766-5.584,12.164-5.811,18.82c-0.278,8.153,0.359,16.335,0.53,24.506c0.021,1.02-0.106,2.241-0.646,3.044
			c-6.305,9.382-9.998,19.956-13.826,30.441c-1.16,3.176-1.268,6.723-2.05,10.056c-0.327,1.393-0.873,2.922-1.803,3.956
			c-9.3,10.345-17.188,21.557-20.027,35.431c-1.792,8.75-4.478,17.105-8.334,25.105c-2.354,4.879-5.24,9.52-7.346,14.496
			c-4.714,11.135-11.829,19.557-23.054,24.93c-7.09,3.396-12.763,9.211-15.922,16.804c-0.536,1.288-0.84,3.693-0.165,4.24
			c1.162,0.941,3.282,1.338,4.813,1.027c1.983-0.401,3.851-1.604,5.642-2.674c1.613-0.966,3.054-2.22,4.571-3.346
			c0.22,0.188,0.438,0.375,0.659,0.563c-1.458,2.143-2.94,4.269-4.369,6.431c-3.711,5.613-7.602,11.127-10.965,16.942
			c-0.908,1.569-0.197,4.078-0.229,6.155c1.839-0.741,3.987-1.101,5.461-2.293c4.655-3.764,9.058-7.839,14.323-12.467
			c-1.007,2.275-1.663,3.643-2.226,5.048c-2.178,5.438-4.457,10.841-6.386,16.365c-0.461,1.321,0.285,3.063,0.478,4.612
			c1.509-0.65,3.524-0.895,4.434-2.026c3.036-3.782,5.748-7.835,8.437-11.882c1.349-2.03,2.377-4.273,3.55-6.421
			c-0.383,3.053-1.4,5.858-2.012,8.754c-0.891,4.206-1.574,8.463-2.143,12.726c-0.122,0.915,0.631,1.946,0.981,2.924
			c0.898-0.52,2.053-0.839,2.647-1.597c1.5-1.909,2.881-3.94,4.072-6.059c3.173-5.643,6.222-11.354,9.434-17.248
			c0.069,0.888,0.103,1.625,0.188,2.355c0.409,3.518,0.699,7.058,1.342,10.532c0.17,0.919,1.444,1.633,2.211,2.44
			c0.751-0.731,1.813-1.336,2.182-2.228c0.537-1.297,0.633-2.792,0.822-4.216c1.143-8.529,2.437-17.043,3.32-25.6
			c0.599-5.799,0.421-11.676,0.948-17.485c0.374-4.115,0.357-8.723,2.256-12.146c3.893-7.022,8.87-13.457,13.595-19.994
			c1.121-1.55,2.906-2.708,4.563-3.769c8.11-5.19,15.194-11.509,20.983-19.193c8.474-11.247,15.604-23.157,17.243-37.555
			c0.398-3.505,0.272-7.122,1.104-10.513c1.179-4.811,3.003-9.465,4.583-14.176c1.281-3.824,2.607-7.633,4.077-11.926
			c1.477,2.157,2.486,3.877,3.73,5.409c6.409,7.889,9.589,17.097,9.572,27.048c-0.021,12.054-0.626,24.139-1.68,36.15
			c-1.401,16-1.576,32.299-8.858,47.23c-0.477,0.977-0.662,2.112-0.883,3.194c-3.738,18.309-7.988,36.533-11.052,54.954
			c-3.729,22.429-2.355,44.605,6.5,65.926c0.405,0.976,0.451,2.121,0.552,3.197c1.218,13.131-0.852,26.08-2.061,39.088
			c-1.229,13.242-3.003,26.317-7.286,39.016c-1.571,4.657-2.128,9.729-2.629,14.665c-1.965,19.341,0.446,38.479,2.994,57.604
			c1.448,10.857,2.804,21.729,4.034,32.612c0.171,1.516-0.391,3.233-1.001,4.695c-2.849,6.813-6.287,13.417-8.607,20.396
			c-1.49,4.483-3.51,8.08-6.899,11.36c-2.705,2.616-4.776,6.023-6.6,9.369c-1.346,2.47-0.037,4.507,2.692,5.339
			c1.018,0.311,2.097,0.424,3.146,0.628c-0.233,0.229-0.468,0.459-0.701,0.688c1.206,1.488,2.164,3.886,3.664,4.295
			C230.515,758.058,235.301,758.54,240.602,759.42z"/>
		<path d="M240.602,759.42c-5.3-0.88-10.086-1.362-14.664-2.611c-1.5-0.408-2.458-2.807-3.664-4.295
			c0.234-0.229,0.469-0.459,0.702-0.688c-1.051-0.204-2.129-0.317-3.146-0.628c-2.729-0.832-4.038-2.869-2.692-5.338
			c1.823-3.347,3.896-6.753,6.599-9.37c3.391-3.28,5.41-6.877,6.9-11.36c2.32-6.979,5.759-13.584,8.607-20.396
			c0.611-1.462,1.173-3.182,1.001-4.696c-1.23-10.884-2.586-21.755-4.034-32.612c-2.548-19.125-4.959-38.263-2.994-57.604
			c0.501-4.937,1.058-10.007,2.629-14.665c4.283-12.697,6.056-25.772,7.286-39.016c1.209-13.008,3.278-25.956,2.06-39.088
			c-0.1-1.075-0.146-2.223-0.551-3.196c-8.855-21.32-10.229-43.497-6.5-65.927c3.063-18.421,7.313-36.646,11.051-54.954
			c0.222-1.082,0.407-2.217,0.883-3.194c7.283-14.931,7.458-31.23,8.859-47.23c1.052-12.011,1.659-24.096,1.679-36.15
			c0.018-9.951-3.163-19.159-9.571-27.048c-1.244-1.531-2.254-3.252-3.73-5.409c-1.47,4.293-2.796,8.102-4.078,11.926
			c-1.579,4.711-3.403,9.365-4.583,14.176c-0.83,3.391-0.704,7.008-1.103,10.513c-1.641,14.397-8.771,26.308-17.243,37.555
			c-5.789,7.684-12.874,14.003-20.984,19.193c-1.657,1.061-3.442,2.218-4.563,3.769c-4.726,6.537-9.702,12.971-13.595,19.994
			c-1.898,3.423-1.884,8.03-2.257,12.146c-0.526,5.81-0.349,11.687-0.947,17.485c-0.885,8.557-2.179,17.07-3.32,25.6
			c-0.19,1.424-0.285,2.919-0.823,4.216c-0.369,0.892-1.429,1.495-2.181,2.228c-0.768-0.809-2.041-1.521-2.211-2.44
			c-0.644-3.476-0.934-7.016-1.342-10.532c-0.085-0.73-0.118-1.469-0.188-2.355c-3.212,5.895-6.261,11.605-9.434,17.248
			c-1.191,2.117-2.572,4.148-4.072,6.059c-0.595,0.758-1.749,1.077-2.648,1.598c-0.35-0.979-1.103-2.01-0.98-2.925
			c0.567-4.263,1.252-8.52,2.142-12.726c0.612-2.895,1.629-5.701,2.013-8.754c-1.174,2.146-2.202,4.391-3.551,6.421
			c-2.688,4.047-5.399,8.1-8.436,11.882c-0.909,1.133-2.925,1.376-4.435,2.026c-0.19-1.549-0.938-3.291-0.477-4.612
			c1.928-5.523,4.208-10.928,6.385-16.365c0.563-1.404,1.22-2.771,2.227-5.048c-5.267,4.628-9.668,8.703-14.323,12.467
			c-1.475,1.192-3.622,1.553-5.461,2.293c0.032-2.076-0.679-4.586,0.229-6.155c3.364-5.815,7.253-11.329,10.966-16.942
			c1.429-2.162,2.91-4.288,4.368-6.431c-0.22-0.188-0.438-0.374-0.658-0.563c-1.518,1.127-2.958,2.381-4.571,3.346
			c-1.791,1.07-3.658,2.271-5.643,2.674c-1.528,0.311-3.649-0.085-4.812-1.027c-0.676-0.547-0.372-2.952,0.165-4.24
			c3.159-7.593,8.832-13.408,15.922-16.804c11.224-5.373,18.339-13.795,23.053-24.93c2.106-4.977,4.993-9.617,7.347-14.496
			c3.857-8,6.543-16.355,8.334-25.105c2.84-13.874,10.729-25.085,20.026-35.431c0.931-1.034,1.477-2.563,1.804-3.956
			c0.782-3.333,0.891-6.879,2.05-10.056c3.828-10.485,7.521-21.059,13.826-30.441c0.54-0.804,0.668-2.025,0.646-3.044
			c-0.171-8.171-0.809-16.354-0.531-24.506c0.228-6.656,2.092-13.054,5.812-18.82c6.768-10.491,16.958-14.823,28.766-16.172
			c4.715-0.538,9.759,0.33,14.165-1.027c4.257-1.312,7.818-4.78,11.807-7.093c8.207-4.762,12.563-11.87,12.337-21.276
			c-0.138-5.694-1.299-11.37-2.15-17.031c-0.125-0.831-0.97-1.673-1.681-2.277c-7.923-6.729-9.846-14.128-6.233-23.981
			c0.292-0.794,0.217-1.736,0.244-2.611c0.178-5.759,0.292-11.521,0.515-17.277c0.284-7.317,3.651-13.06,9.801-16.792
			c13.546-8.222,27.788-7.975,42.084-2.276c4.307,1.716,7.352,5.385,9.161,9.708c3.978,9.495,5.234,19.384,3.916,29.618
			c-0.234,1.822-0.113,3.728,0.106,5.563c0.645,5.389,0.711,10.659-2.694,15.292c-0.837,1.138-1.878,2.789-2.999,2.943
			c-5.335,0.737-5.114,5.232-5.23,8.469c-0.223,6.16,0.328,12.403,1.15,18.532c0.964,7.19,5.317,11.871,12.104,14.537
			c3.985,1.566,7.74,3.72,11.638,5.527c0.854,0.396,1.877,0.667,2.806,0.626c23.928-1.05,39.771,11.225,44.729,34.484
			c1.651,7.752,0.913,15.44,0.068,23.144c-0.305,2.78,0.165,4.865,1.978,7.235c2.793,3.653,5.17,7.761,6.994,11.991
			c3.976,9.224,8.357,18.357,9.503,28.553c0.086,0.761,0.8,1.483,1.307,2.161c5.637,7.528,11.497,14.901,16.869,22.614
			c3.706,5.322,5.563,11.502,6.43,17.977c1.29,9.633,6.289,17.897,10.182,26.548c2.632,5.85,5.727,11.49,8.488,17.283
			c2.767,5.798,6.88,10.151,12.59,13.19c7.502,3.992,14.34,8.856,18.719,16.457c0.166,0.287,0.443,0.537,0.521,0.845
			c0.476,1.899,1.902,4.771,1.164,5.537c-2.051,2.13-4.266-0.08-6.053-1.376c-2.391-1.73-4.539-3.797-7.172-6.043
			c-0.874,3.732,0.522,6.23,2.369,8.563c3.23,4.082,6.645,8.027,9.721,12.222c1.608,2.195,3.016,4.68,3.877,7.245
			c1.059,3.157-1.089,5.304-4.139,3.837c-3.908-1.878-7.344-4.757-10.933-7.274c-0.689-0.484-1.153-1.295-2.204-1.735
			c0.979,3.098,2.027,6.175,2.915,9.298c0.784,2.764,1.711,5.551,1.95,8.38c0.148,1.738-0.877,3.576-1.376,5.369
			c-1.699-0.963-4.062-1.51-4.973-2.965c-2.69-4.295-4.858-8.924-7.128-13.474c-1.177-2.361-2.137-4.832-3.868-7.043
			c1.187,4.433,2.469,8.843,3.529,13.305c0.814,3.435,1.521,6.916,1.922,10.418c0.142,1.23-0.767,2.582-1.193,3.879
			c-1.194-0.795-2.879-1.315-3.497-2.431c-2.68-4.829-5.105-9.803-7.51-14.779c-1.818-3.766-3.462-7.615-5.184-11.428
			c-0.302,0.012-0.602,0.022-0.901,0.035c-0.409,3.171-0.845,6.34-1.217,9.515c-0.231,1.979-0.221,3.998-0.61,5.94
			c-0.188,0.936-1.056,1.734-1.615,2.596c-0.911-0.666-2.333-1.154-2.639-2.031c-1.012-2.899-1.944-5.9-2.32-8.937
			c-0.921-7.445-1.587-14.925-2.206-22.402c-0.291-3.521-0.697-7.127-0.251-10.591c1.162-9-1.99-16.707-7.045-23.605
			c-7.547-10.303-16.371-19.365-26.661-27.156c-15.222-11.525-24.554-26.811-26.419-46.16c-0.307-3.185-0.391-6.391-0.594-9.586
			c-0.027-0.427-0.026-0.931-0.245-1.261c-5.258-7.905-7.179-17.073-9.873-25.949c-0.05-0.164-0.228-0.289-0.401-0.5
			c-8.185,12.914-13.949,26.082-11.932,42.121c1.71,13.587,1.705,27.42,1.913,41.153c0.142,9.275,1.869,18.044,4.695,26.856
			c6.591,20.555,12.052,41.425,15.336,62.81c1.63,10.611,1.016,21.204,0.101,31.821c-1.145,13.289-2.846,26.423-8.71,38.656
			c-0.582,1.214-0.559,2.833-0.463,4.239c1.053,15.692,1.776,31.422,3.456,47.049c0.781,7.269,2.771,14.596,5.4,21.44
			c6.776,17.643,8.458,35.633,5.574,54.186c-2.666,17.161-5.396,34.313-7.87,51.503c-0.336,2.332,0.294,4.984,1.104,7.267
			c2.179,6.138,4.547,12.22,7.133,18.197c1.739,4.021,3.839,7.905,6.029,11.705c2.594,4.499,5.638,8.743,8.157,13.28
			c2.371,4.271,1.518,5.934-3.064,7.244c-0.316,0.093-0.716,0.055-0.956,0.235c-4.914,3.693-10.662,4.143-16.69,3.974
			c0.086,3.402-2.064,3.67-4.44,3.679c-9.033,0.027-16.841-8.964-15.758-17.913c0.343-2.828,0.713-5.95-0.108-8.568
			c-3.249-10.364-2.603-20.859-1.436-31.313c1.877-16.788-1.016-32.576-8.479-47.662c-3.434-6.94-6.704-13.973-9.762-21.084
			c-3.131-7.28-3.245-15.124-3.222-22.863c0.022-7.854,0.572-15.704,0.928-23.554c0.055-1.207,0.373-2.4,0.458-3.608
			c0.354-5.021,0.02-9.963-4.449-13.221c-9.167-6.688-10.922-16.049-9.419-26.331c0.724-4.938,0.37-9.313-1.142-14.145
			c-5.771-18.44-9.399-37.331-9.849-56.738c-0.031-1.393-0.491-2.8-0.906-4.153c-3.688-12.024-6.551-24.158-5.034-36.888
			c0.166-1.389,0.481-2.76,0.76-4.307c-3.37,0.494-6.487,0.951-9.735,1.428c-0.071,0.166-0.348,0.477-0.308,0.738
			c1.835,11.967-0.32,23.719-4.626,34.543c-3.563,8.958-3.523,17.927-3.891,26.929c-0.532,13.096-3.909,25.556-6.733,38.17
			c-0.312,1.392-0.642,2.949-1.483,4.021c-2.785,3.541-2.199,7.46-1.637,11.388c1.295,9.031-0.312,17.193-6.838,23.995
			c-2.497,2.603-3.632,5.719-3.502,9.374c0.06,1.637-0.014,3.444-0.646,4.906c-2.845,6.559-1.943,13.271-1.091,19.971
			c1.48,11.639,0.545,22.895-3.915,33.904c-4.193,10.354-8.123,20.836-11.579,31.453c-2.143,6.577-3.757,13.447-4.524,20.309
			c-0.514,4.598,1.122,9.395,1.361,14.125c0.521,10.304,0.262,20.556-2.074,30.72c-0.797,3.465-0.766,7.239-0.45,10.814
			c0.582,6.585-6.455,15.211-13.065,15.594C242.208,762.552,240.458,761.649,240.602,759.42z M366.001,389.555
			c-0.167-0.055-0.335-0.108-0.501-0.163c-2.725,5.012-5.704,9.903-8.123,15.058c-8.173,17.406-16.305,34.836-24.13,52.398
			c-4.189,9.402-6.854,18.962-5.874,29.792c1.45,16.014,5.272,31.378,9.698,46.667c0.85,2.934,3.005,5.604,4.979,8.06
			c1.94,2.414,4.533,2.391,6.505-0.093c2.534-3.191,5.098-6.43,7.103-9.956c3.985-7.017,7.588-14.249,11.387-21.372
			c0.314-0.593,0.908-1.036,1.786-2.005c1.476,8.069,2.838,15.532,4.326,23.685c1.677-2.14,3.311-3.599,4.16-5.423
			c3.309-7.089,7.529-14.021,9.299-21.508c5.309-22.461,7.153-45.196,1.938-68.082c-0.752-3.298-2.06-5.52-4.906-7.314
			c-1.982-1.25-3.761-3.127-5.06-5.101c-3.101-4.708-5.853-9.646-8.764-14.478c-3.295-5.471-5.221-11.222-3.849-17.713
			C366.145,391.224,366.001,390.374,366.001,389.555z M264.889,389.726c-0.473,0.072-0.946,0.144-1.418,0.217
			c1.185,7.649-0.917,14.476-4.535,21.028c-3.208,5.807-5.912,11.899-9.245,17.629c-1.491,2.564-4.017,4.518-5.998,6.813
			c-0.886,1.027-2.113,2.139-2.288,3.341c-1.152,7.99-2.477,15.991-2.972,24.035c-1.515,24.593,3.529,47.559,18.027,67.95
			c1.192,1.678,2.576,3.221,3.872,4.827c0.476-0.175,0.952-0.348,1.427-0.521c0-7.299,0-14.598,0-22.47
			c1.24,0.688,1.74,0.797,1.946,1.104c5.249,7.795,10.455,15.62,15.694,23.422c3.204,4.768,8.636,4.469,11.301-0.719
			c1.052-2.047,1.908-4.271,2.396-6.516c2.726-12.522,5.583-24.943,6.429-37.885c0.912-13.948-0.472-27.153-6.236-39.857
			C283.846,431.315,274.357,410.523,264.889,389.726z M368.251,514.03c-0.417-0.061-0.835-0.118-1.251-0.177
			c-2.929,5.561-5.713,11.203-8.834,16.653c-2.188,3.82-4.55,7.617-7.353,10.993c-3.794,4.572-6.101,4.538-10.62,0.816
			c-0.464-0.383-1.012-0.659-1.657-1.073c-0.314,1.694-0.667,3.092-0.823,4.51c-0.981,8.85-0.89,17.575,6.931,23.653
			c5.719,4.445,7.511,9.998,7.041,16.889c-0.142,2.063,0.372,4.455,1.371,6.265c8.58,15.548,14.285,32.123,17.673,49.479
			c3.033,15.538,2.495,31.267,1.65,46.978c-0.106,1.97-0.017,3.949-0.017,5.925c1.078-0.957,1.486-1.953,1.813-2.977
			c8.329-26.053,11.858-52.809,11.877-80.104c0.006-9.298,0.346-18.598,0.521-27.896c0.021-1.104,0.037-2.215-0.07-3.311
			c-1.235-12.548-2.538-25.089-3.731-37.642c-0.59-6.205-0.989-12.428-1.497-18.938c-2.203,2.835-4.048,5.436-6.163,7.796
			c-0.682,0.761-2.12,1.269-3.12,1.145c-0.515-0.063-1.028-1.732-1.197-2.734C369.886,524.874,369.087,519.449,368.251,514.03z
			 M256.545,693.4c0.29-0.042,0.581-0.084,0.872-0.126c0-4.188-0.155-8.385,0.027-12.564c0.621-14.153,0.987-28.332,2.163-42.442
			c1.147-13.777,6.757-26.254,12.929-38.467c3.078-6.093,6.517-12.133,6.595-19.248c0.043-3.938,1.015-7.478,3.821-10.309
			c8.209-8.282,7.568-18.273,5.701-29.088c-6.461,3.247-9.411-0.751-12.376-5.42c-3.499-5.513-7.421-10.754-11.182-16.097
			c-0.255-0.362-0.697-0.595-1.948-1.627c0,5.938,0.084,10.918-0.066,15.894c-0.032,1.051-0.757,2.772-1.465,2.945
			c-1.059,0.259-2.759-0.229-3.52-1.031c-1.658-1.746-2.976-3.839-4.286-5.885c-2.058-3.211-3.995-6.5-6.236-10.173
			c-0.226,0.86-0.347,1.142-0.366,1.428c-0.872,12.248-1.735,24.495-2.601,36.742c-0.452,6.403-1.218,12.803-1.271,19.207
			c-0.051,5.962,0.756,11.927,1.008,17.896c0.992,23.41-0.821,47.016,5.425,70.043C252.308,674.444,254.302,683.956,256.545,693.4z
			 M316.448,233.75c0.647,5.693,1.031,11.43,2.007,17.066c1.25,7.229,6.118,11.372,13.151,12.052
			c8.221,0.794,16.531,0.647,24.799,0.988c4.668,0.192,7.906-2.045,10.704-5.54c7.046-8.8,12.615-18.191,12.486-29.93
			c-0.025-2.229-0.079-4.774-1.11-6.62c-4.527-8.099-9.322-16.055-14.286-23.895c-0.725-1.144-2.905-1.993-4.374-1.938
			c-10.93,0.41-21.849,1.126-32.774,1.632c-1.98,0.092-2.513,0.933-2.907,2.739c-0.896,4.088-1.718,8.28-3.339,12.104
			C317.896,219.271,316.031,226.19,316.448,233.75z M286.327,196.533c0.001-0.246,0.001-0.492,0.001-0.738
			c-4.542,0-9.099,0.212-13.622-0.077c-2.812-0.179-4.688,0.748-6.061,3.019c-4.008,6.626-8.105,13.201-11.936,19.929
			c-1.681,2.951-3.926,6.221-3.938,9.354c-0.025,7.2,0.018,14.64,5.146,20.778c2.111,2.527,3.317,5.829,5.501,8.274
			c1.813,2.031,4.332,4.476,6.752,4.734c8.226,0.88,16.597,1.578,24.813,0.981c6.653-0.483,13.586-3.023,15.65-10.414
			c2.425-8.684,5.168-17.65,3.187-26.792c-2.01-9.273-4.839-18.372-7.483-27.496c-0.209-0.721-1.777-1.456-2.734-1.483
			C296.516,196.456,291.42,196.533,286.327,196.533z M314.529,334.191c-3.616,4.096-7.84,7.102-13.391,7.98
			c-5.396,0.853-10.713,1.197-16.425-1.334c0.496,5.121,0.415,9.857,1.512,14.304c1.607,6.517,4.287,12.76,6.105,19.234
			c4.721,16.809,9.202,33.686,13.85,50.514c0.322,1.169,0.951,2.593,1.889,3.193c4.767,3.055,12.467,0.416,14.258-4.925
			c1.049-3.128,1.679-6.41,2.311-9.659c3.505-18.029,10.841-34.78,17.332-51.801c2.682-7.032,2.767-14.128,2.177-21.508
			C333.326,345.221,320.078,341.897,314.529,334.191z M290.198,140.503c0.312,0.011,0.621,0.022,0.933,0.032
			c0.229,1.356,0.541,2.704,0.675,4.069c1.281,13.03,15.573,23.358,28.381,20.313c8.142-1.936,13.91-6.541,15.809-15.144
			c0.742-3.362,1.7-6.676,2.562-10.012c0.303,0.039,0.604,0.077,0.907,0.115c0,1.39,0,2.78,0,4.554
			c4.304-1.065,5.506-4.336,6.383-7.372c1.109-3.847,1.406-7.893-0.81-11.738c-1.358,0.801-2.37,1.396-3.973,2.339
			c-0.539-2.855-1.073-5.282-1.445-7.734c-0.895-5.896-1.199-11.938-2.692-17.674c-1.792-6.886-5.249-8.324-11.936-6.354
			c-7.303,2.153-14.646,2.064-21.939-0.018c-5.823-1.662-8.17-0.649-10.149,5.068c-0.71,2.052-1.04,4.306-1.132,6.486
			c-0.182,4.313-0.009,8.639-0.128,12.956c-0.042,1.53-0.505,3.048-0.902,5.28c-1.506-1.331-2.262-2.103-3.119-2.736
			c-2.077-1.533-4.103-0.911-4.976,1.469c-2.205,6.013,1.145,15.304,6.729,18.634C289.648,142.191,289.923,141.347,290.198,140.503z
			 M458.797,386.12c-0.358,0.143-0.719,0.287-1.076,0.43c-0.598-0.884-1.21-1.757-1.788-2.653
			c-7.57-11.708-14.999-23.511-22.754-35.096c-4.733-7.072-8.899-14.434-10.328-22.803c-0.802-4.689-3.076-7.274-6.882-9.432
			c-7.047-3.994-13.957-8.226-21.491-12.695c1.202,13.08,2.897,25.169,10.308,35.655c6.413,9.076,21.766,23.482,25.682,24.587
			c-3.485-4.654-8.145-9.536-11.194-15.271c-4.236-7.964-5.344-16.6-3.545-18.656c0.354,1.535,0.713,2.883,0.972,4.25
			c1.982,10.487,6.088,19.619,14.396,26.948c4.479,3.95,7.843,9.278,11.254,14.295c4.272,6.285,8.079,12.888,12.157,19.466
			c4.945-2.938,10.103-6.001,15.354-9.121c-2.429-4.838-4.809-9.215-6.86-13.741c-4.513-9.946-10.596-19.377-12.041-30.425
			c-2.139-16.333-13.005-27.342-23.009-40.066c-1.455,5.712-2.892,10.564-3.861,15.509c-0.452,2.311-0.63,5.03,0.154,7.165
			c2.47,6.707,4.752,13.644,8.386,19.73c7.819,13.104,16.449,25.726,24.708,38.572C457.985,383.78,458.317,384.998,458.797,386.12z
			 M200.801,363.441c18.457-10.47,37.403-42.482,34.809-57.659c-3.892,2.456-7.809,5.082-11.876,7.45
			c-3.63,2.114-7.37,4.063-11.171,5.851c-2.021,0.951-2.8,2.257-3.253,4.428c-0.781,3.747-1.597,7.667-3.378,10.989
			c-3.756,7.007-8.159,13.665-12.271,20.481c-6.112,10.127-12.201,20.27-18.305,30.401c-0.406,0.673-0.856,1.319-1.287,1.977
			c-0.289-0.117-0.579-0.234-0.867-0.351c0.271-1.03,0.348-2.168,0.849-3.072c3.267-5.9,6.466-11.847,9.989-17.593
			c6.646-10.843,13.728-21.426,20.185-32.379c4.408-7.474,4.729-15.826,2.913-24.181c-0.603-2.775-1.918-5.395-3.015-8.379
			c-7.306,6.639-17.814,21.2-20.857,35.063c-1.275,5.813-2.612,11.702-4.825,17.192c-3.01,7.468-6.859,14.598-10.399,21.848
			c-1.837,3.763-3.783,7.474-5.835,11.514c4.993,2.773,9.879,5.485,14.602,8.107c2.164-3.953,3.873-7.96,6.349-11.417
			c5.733-8.004,11.425-16.105,17.902-23.491c7.182-8.187,11.563-17.436,13.742-27.935c0.213-1.026,0.72-1.992,1.091-2.986
			c0.364,0.163,0.729,0.326,1.091,0.489C215.146,342.616,210.127,353.984,200.801,363.441z M319.354,258.248
			c-1.275,5.002-3.188,9.203-3.284,13.446c-0.444,19.256-0.413,38.523-0.438,57.787c-0.002,1.567,0.502,3.388,1.389,4.663
			c4.458,6.423,19.231,8.917,25.513,4.33c0.88-0.642,1.572-2.108,1.626-3.228c0.693-14.597,1.262-29.201,1.851-43.803
			c0.304-7.531,0.686-15.072-2.229-22.285c-0.764-1.889-1.51-3.428-4.102-3.5C332.522,265.458,325.476,264.635,319.354,258.248z
			 M308.126,259.239c-5.278,2.01-9.858,4.729-14.708,5.35c-5.85,0.75-8.426,3.902-8.932,8.838
			c-0.639,6.236-0.537,12.567-0.436,18.854c0.142,8.742,0.665,17.478,0.864,26.22c0.126,5.521,0.15,11.06-0.153,16.571
			c-0.178,3.224,1.223,4.809,4.06,5.278c8.279,1.369,16.246,0.907,22.475-5.605c1.343-1.405,2.25-3.827,2.277-5.796
			c0.25-17.379,0.304-34.762,0.314-52.144C313.892,270.065,311.52,264.076,308.126,259.239z M421.7,317.941
			c0.744-2.453,1.417-4.624,2.063-6.802c2.261-7.641,3.438-15.256,0.168-22.98c-2.5-5.902-4.753-11.91-7.126-17.866
			c-3.344-8.397-8.854-14.951-16.505-19.802c-5.952-3.774-11.045-8.51-14.736-14.598c-1.299-2.141-2.469-4.36-3.844-6.803
			c-0.224,0.677-0.359,0.968-0.413,1.273c-4.195,24.016,1.742,46.356,11.761,67.847c1.483,3.184,5.211,5.583,8.348,7.677
			c5.693,3.802,11.723,7.104,17.615,10.605C419.765,316.927,420.529,317.307,421.7,317.941z M211.074,318.165
			c6.449-3.72,13.419-7.529,20.132-11.747c1.941-1.219,3.727-3.378,4.582-5.508c2.623-6.54,4.424-13.416,7.155-19.904
			c5.086-12.077,6.958-24.623,6.602-37.603c-0.116-4.225-0.29-8.449-0.465-13.473c-0.982,1.166-1.363,1.556-1.673,1.996
			c-5.854,8.304-12.589,15.65-21.466,20.914c-2.292,1.359-4.469,3.475-5.821,5.762c-6.667,11.272-12.063,23.125-14.579,36.081
			c-0.36,1.854-0.14,3.965,0.354,5.813C207.419,306.219,209.206,311.871,211.074,318.165z M480.07,461.439
			c0.41-0.141,0.819-0.279,1.229-0.421c-0.357-2.261-0.561-4.56-1.103-6.774c-1.496-6.121-3.218-12.188-4.66-18.321
			c-0.376-1.6-0.057-3.361-0.057-5.05c0.434-0.118,0.868-0.236,1.302-0.355c1.235,2.125,2.592,4.189,3.684,6.387
			c2.898,5.837,5.621,11.763,8.563,17.576c0.684,1.349,1.965,2.394,2.973,3.577c0.282-0.137,0.565-0.271,0.85-0.408
			c0-1.351,0.329-2.804-0.054-4.035c-2.357-7.589-4.895-15.123-7.326-22.689c-0.407-1.269-0.602-2.605-0.895-3.912
			c0.44-0.175,0.881-0.349,1.32-0.521c1.108,1.576,2.328,3.089,3.307,4.742c2.82,4.764,6.396,8.78,11.312,11.408
			c1.429,0.764,3.138,1.001,4.718,1.48c0.271-0.328,0.543-0.656,0.815-0.984c-1.354-2.456-2.465-5.089-4.109-7.33
			c-3.142-4.278-6.856-8.153-9.8-12.555c-1.633-2.441-2.833-5.564-3.019-8.458c-0.146-2.299-0.733-3.567-2.608-4.271
			c-1.626-0.609-3.371-0.947-5.092-1.25c-4.128-0.726-8.316-1.172-12.387-2.131c-1.44-0.34-2.608-1.836-3.901-2.805
			c4.47,0.775,8.438,2.694,12.362,2.607c8.156-0.182,13.717,4.183,19.269,9.025c1.084,0.943,2.131,1.946,3.304,2.766
			c0.813,0.566,1.814,0.865,3.596,1.676c-3.94-7.96-8.881-13.546-15.606-17.619c-6.571-3.979-13.876-7.135-17.31-15.175
			c-5.002,3.004-9.651,5.747-14.229,8.607c-0.616,0.386-1.246,1.376-1.221,2.064c0.307,8.604,0.654,17.207,1.158,25.801
			c0.298,5.062,0.808,10.112,1.375,15.15c0.437,3.849,1.114,7.67,1.685,11.503c0.448-0.028,0.896-0.059,1.346-0.088
			c0.149-1.379,0.286-2.759,0.453-4.137c0.438-3.616,0.747-7.259,1.404-10.836c0.249-1.356,1.309-2.564,1.998-3.841
			c0.872,1.058,2.001,1.993,2.569,3.193c2.37,4.991,4.48,10.106,6.864,15.093C475.985,453.967,478.087,457.675,480.07,461.439z
			 M167.518,403.395c0.241,0.203,0.481,0.408,0.723,0.613c-0.563,0.833-1.028,1.756-1.703,2.484
			c-2.769,2.998-6.334,4.29-10.305,4.783c-2.849,0.354-5.773,0.6-8.467,1.49c-1.373,0.455-2.543,2.082-3.394,3.438
			c-1.798,2.864-3.171,5.998-4.997,8.842c-3.278,5.105-6.843,10.027-10.107,15.143c-0.873,1.365-1.092,3.147-1.61,4.738
			c0.263,0.141,0.525,0.278,0.788,0.417c7.609-5.577,14.61-11.821,20.824-19.354c0.315,1.787,0.327,3.468-0.257,4.908
			c-2.534,6.246-5.303,12.399-7.854,18.643c-0.863,2.114-1.333,4.389-1.982,6.589c0.437,0.264,0.875,0.527,1.312,0.792
			c0.847-1.134,1.808-2.2,2.521-3.412c3.969-6.745,7.885-13.521,11.801-20.296c0.815-1.41,1.552-2.864,2.325-4.297
			c0.387,0.151,0.774,0.303,1.161,0.454c0.283,10.234-5.86,19.422-5.638,30.514c1.104-1.483,1.856-2.262,2.337-3.182
			c3.932-7.534,7.802-15.099,11.72-22.64c0.525-1.011,1.212-1.938,2.313-3.677c0.736,7.456,1.36,13.767,1.983,20.074
			c0.317,0,0.634,0,0.951-0.001c0.25-1.145,0.607-2.277,0.729-3.437c0.752-7.145,0.633-14.501,2.372-21.393
			c2.274-9.006,2.504-17.906,1.763-26.982c-0.056-0.67-0.417-1.608-0.933-1.901c-4.868-2.77-9.8-5.427-14.894-8.216
			c-3.423,6.113-9.1,9.134-14.764,12.224c-6.707,3.66-12.478,8.427-16.46,15.06c-0.905,1.512-1.346,3.303-2.352,5.857
			c2.46-0.466,4.101-0.407,5.335-1.088c2.498-1.376,5.009-2.9,7.095-4.818c3.823-3.518,8.037-5.656,13.31-5.951
			c5.057-0.283,9.892-1.438,13.249-5.805C166.649,403.703,167.143,403.594,167.518,403.395z M345.836,326.932
			c0.112,0,0.228,0,0.34,0c0,3.764-0.025,7.527,0.008,11.292c0.032,3.733,1.313,4.895,4.889,3.462
			c3.435-1.376,6.529-3.599,9.774-5.448c6.732-3.837,9.827-9.073,8.16-17.221c-3.168-15.484,1.885-29.242,10.009-42.186
			c0.926-1.477,1.574-3.181,2.069-4.862c1.128-3.833-1.637-7.624-5.421-6.929c-3.633,0.667-7.471,1.666-10.546,3.592
			c-5.511,3.452-10.554,7.663-15.692,11.683c-0.743,0.581-1.282,1.844-1.337,2.823C347.28,297.733,346.57,312.333,345.836,326.932z
			 M282.528,340.876c0-5.477,0.063-10.454-0.012-15.429c-0.194-12.943-0.433-25.884-0.708-38.826
			c-0.021-1.04-0.152-2.31-0.747-3.069c-6.371-8.141-14.799-13.894-23.218-19.624c-2.338-1.592-4.874-1.358-7.125,0.388
			c-1.575,1.222-2.557,7.138-1.498,8.919c1.074,1.807,2.141,3.646,3.449,5.281c7.583,9.48,10.113,20.498,9.916,32.332
			c-0.091,5.537-0.493,11.071-0.517,16.607c-0.006,1.329,0.554,3.14,1.511,3.909c3.446,2.768,7.105,5.293,10.822,7.698
			C276.919,340.689,279.688,341.847,282.528,340.876z M410.262,752.061c0.406-0.045,0.813-0.089,1.218-0.134
			c-0.249-1.295-0.172-2.782-0.803-3.852c-2.752-4.662-5.816-9.14-8.557-13.81c-1.997-3.403-3.9-6.904-5.421-10.541
			c-2.214-5.299-3.971-10.788-6.102-16.125c-0.413-1.037-1.646-1.748-3.173-3.287c0.122-2.25,0.302-5.527,0.459-8.401
			c-5.321,0.59-10.539,1.169-15.86,1.758c-0.218,3.849-0.271,7.733-0.688,11.58c-0.96,8.894-0.62,17.622,1.711,26.344
			c0.797,2.978,0.484,6.405,0.029,9.531c-1.205,8.278,7.86,16.791,16.49,14.786c-2.395-3.479-4.708-6.838-7.45-10.821
			c1.344,0.219,1.637,0.177,1.744,0.298c1.325,1.485,2.688,2.945,3.916,4.51c2.877,3.658,4.793,4.078,10.077,0.674
			c-1.717-0.806-3.434-1.61-5.149-2.416c0.364-0.359,0.729-0.72,1.093-1.079c3.091,0.546,4.924,2.454,5.324,5.711
			c3.499-0.555,3.499-0.555-0.523-6.671c0.186-0.269,0.372-0.533,0.558-0.801c2.058,1.479,4.113,2.956,6.479,4.657
			c0.476-0.331,1.418-0.984,2.727-1.895c-1.69-1.304-2.984-2.3-4.466-3.44C406.986,748.001,407.692,748.415,410.262,752.061z
			 M242.146,707.292c-0.277-0.034-0.558-0.069-0.836-0.104c-0.853,0.643-2.127,1.104-2.488,1.953
			c-2.333,5.484-4.944,10.922-6.518,16.636c-1.33,4.827-3.525,8.625-7.228,11.924c-2.267,2.019-4.021,4.683-5.691,7.262
			c-0.597,0.922-0.802,3.009-0.227,3.556c0.778,0.741,2.501,0.737,3.78,0.625c0.997-0.087,1.923-0.859,2.907-1.267
			c0.779-0.321,1.598-0.549,3.162-1.073c-5.069,6.598-5.069,6.598-2.166,8.092c0.617-3.171,2.603-4.834,5.638-5.323
			c-0.213,0.964-0.935,1.429-1.355,2.087c-0.763,1.189-1.346,2.496-2.002,3.753c1.227,0.446,2.453,0.892,3.809,1.384
			c0.779-3.221,1.813-5.531,4.97-5.803c-0.285,0.997-1.078,1.577-1.511,2.355c-0.492,0.888-0.664,1.95-0.975,2.938
			c1.004,0.228,2.064,0.776,3.001,0.615c1.92-0.336,3.688-0.973,4.62-3.135c0.628-1.456,1.946-2.614,2.957-3.906
			c0.295,0.188,0.589,0.378,0.884,0.565c-1.576,3.104-3.152,6.206-4.797,9.445c6.896,1.685,14.872-6.275,14.263-12.915
			c-0.367-3.998-0.264-8.201,0.565-12.112c2.137-10.077,2.387-20.206,1.873-30.404c-0.131-2.608-0.539-5.204-0.787-7.504
			c-5.589-0.739-10.707-1.416-15.85-2.098C242.146,698.975,242.146,703.134,242.146,707.292z M325.19,419.445
			c0.962-0.848,1.239-1.019,1.418-1.262c6.604-8.996,12.861-18.275,19.918-26.899c4.663-5.698,9.819-11.491,15.94-15.367
			c7.354-4.657,9.358-10.141,8.373-18.259c-1.019-8.383-0.996-16.892-1.452-25.806c-7.44,5.085-13.006,12.743-23.293,12.02
			c1.617,10.368-2.986,19.261-6.293,28.5c-3.869,10.809-7.594,21.673-11.129,32.595C327.235,409.411,326.461,414.066,325.19,419.445
			z M301.3,415.938c0.163-0.078,0.325-0.156,0.488-0.235c-0.132-0.745-0.203-1.509-0.403-2.233
			c-3.298-11.941-6.515-23.907-9.958-35.807c-2.271-7.848-5.096-15.539-7.227-23.42c-0.962-3.556-0.837-7.407-1.228-11.354
			c-9.08,1.077-13.872-6.614-20.98-9.913c-1.25,11.015-2.584,21.853-3.596,32.722c-0.143,1.53,0.847,3.969,2.071,4.686
			c5.699,3.33,9.936,8.12,14.046,13.055C283.497,394.224,292.377,405.098,301.3,415.938z M293.517,158.297
			c0.912,3.527,1.663,7.105,2.766,10.572c4.684,14.749,8.997,29.64,14.353,44.145c5.361,14.527,3.58,28.425-1.303,42.433
			c-0.202,0.582-0.456,1.389-0.217,1.843c1.722,3.256,3.564,6.448,5.195,9.352c4.127-5.642,3.636-11.576,1.953-18.236
			c-1.486-5.882-0.755-12.31-1.139-18.488c-0.324-5.207,0.879-10.033,2.675-14.89c1.869-5.056,3.118-10.34,4.633-15.526
			c0.589-2.015,1.053-4.073,1.763-6.043c3.596-9.981,7.33-19.915,10.813-29.936c0.556-1.6,0.078-3.56,0.078-5.661
			C321.86,170.311,313.761,170.29,293.517,158.297z M326.291,470.482c0.271-0.708,0.555-1.411,0.808-2.124
			c6.091-17.215,12.993-34.079,21.479-50.272c4.722-9.008,9.352-18.063,14.02-27.098c2.405-4.655,4.068-9.434,2.484-14.99
			c-0.698,0.477-1.267,0.795-1.753,1.208c-17.104,14.531-30.098,32.317-40.896,51.818c-0.836,1.509-1.285,3.32-1.537,5.049
			C319.058,446.689,322.277,458.635,326.291,470.482z M266.055,194.995c-4.483,0.27-9.159,0.217-13.727,0.894
			c-11.069,1.64-20.681,6.093-26.294,16.373c-7.047,12.9-5.99,26.713-4.128,40.648c11.484-5.864,19.729-14.715,26.031-25.289
			C254.243,217.04,259.928,206.09,266.055,194.995z M264.049,374.941c-0.308,7.832,1.654,14.738,5.174,21.226
			c3.003,5.536,6.849,10.786,8.854,16.662c6.816,19.997,19.132,37.784,23.641,58.888c1.894-5.799,3.557-11.606,4.836-17.499
			c2.12-9.767,3.754-19.511-2.417-28.679c-2.763-4.104-4.585-8.896-7.646-12.729c-8.696-10.889-17.784-21.465-26.783-32.109
			C267.975,378.651,265.943,376.854,264.049,374.941z M365.765,194.828c6.915,13.046,13.705,25.947,20.582,38.803
			c4.726,8.834,12.844,14.036,21.756,20.087c0-8.553,0.799-16.359-0.173-23.938c-1.786-13.922-8.18-25.188-21.796-31.104
			C379.474,195.783,372.678,193.726,365.765,194.828z M374.762,695.888c4.412-0.758,7.92-1.103,11.247-2.069
			c1.2-0.35,2.617-2.087,2.829-3.373c2.547-15.503,5.102-31.01,7.213-46.575c1.717-12.654,2.451-25.387-1.27-37.896
			c-1.83-6.154-3.826-12.261-5.748-18.388c-1.272,18.282-1.095,36.381-2.667,54.326C384.795,659.85,381.24,677.584,374.762,695.888z
			 M242.184,582.659c-0.315-0.03-0.633-0.063-0.949-0.092c-1.584,5.728-3.483,11.39-4.688,17.194
			c-2.979,14.348-2.827,28.883-1.239,43.344c1.739,15.84,4.083,31.611,6.236,47.403c0.109,0.813,0.771,2.063,1.388,2.206
			c3.71,0.865,7.482,1.466,11.957,2.288c-2.955-13.019-5.637-25.187-8.491-37.313c-2.917-12.396-3.287-24.973-3.324-37.629
			C243.034,607.594,242.5,595.127,242.184,582.659z M341.99,124.334c0.363,0.146,0.728,0.291,1.09,0.436
			c1.033-1.316,2.781-2.532,2.984-3.966c1.377-9.734,0.076-19.218-3.827-28.245c-1.912-4.419-5.218-7.829-9.775-9.454
			c-10.988-3.92-22.146-4.306-33.123-0.061c-6.738,2.606-12.659,6.796-13.854,14.413c-1.15,7.348-1.05,14.891-1.479,22.04
			c2.338,0.863,3.938,1.454,5.851,2.16c0-4.822-0.32-9.383,0.104-13.873c0.327-3.443,1.131-7.009,2.563-10.136
			c1.941-4.241,4.913-5.388,9.356-4.018c8.194,2.528,16.28,2.634,24.438-0.058c4.343-1.433,8.189-0.332,10.146,3.831
			c1.743,3.715,2.914,7.798,3.694,11.844C341.119,114.209,341.41,119.3,341.99,124.334z M351.087,594.117
			c-0.299,6.513-0.782,13.022-0.849,19.539c-0.098,9.711,1.482,18.92,5.993,27.887c5.645,11.22,11.512,22.49,14.056,35.018
			c0.018,0.081,0.302,0.106,0.569,0.193C372.779,647.142,365.365,619.801,351.087,594.117z M276.545,597.422
			c-0.32-0.035-0.641-0.07-0.96-0.104c-2.801,6.237-5.987,12.337-8.297,18.752c-2.312,6.419-4.213,13.066-5.435,19.771
			c-1.244,6.834-1.687,13.848-2.024,20.805c-0.326,6.694-0.071,13.419-0.071,19.894c5.077-13.982,10.126-28.26,15.45-42.435
			C279.775,621.945,277.863,609.698,276.545,597.422z M259.135,371.044c-8.813,20.637-13.57,41.251-16.228,62.552
			c1.67-1.176,3.342-2.387,4.215-4.023c4.313-8.104,8.477-16.29,12.554-24.518c0.967-1.953,1.931-4.16,1.979-6.271
			c0.181-7.746,0.076-15.504-0.183-23.25C261.428,374.179,260.123,372.865,259.135,371.044z M371.436,371.882
			c-3.587,1.168-4.201,3.018-4.108,5.696c0.224,6.407-0.043,12.832,0.226,19.236c0.105,2.578,0.582,5.39,1.771,7.625
			c3.58,6.731,7.45,13.322,11.524,19.77c1.256,1.987,3.527,3.332,5.335,4.97c0.445-0.257,0.89-0.514,1.335-0.771
			C382.179,409.645,376.841,390.882,371.436,371.882z M335.49,168.757c-3.351,9.168-6.566,17.971-10.033,27.456
			c11.8-0.588,23.098-1.152,34.395-1.716c0.08-0.498,0.16-0.996,0.24-1.495c-3.382-1.458-6.703-3.086-10.159-4.342
			c-7.938-2.886-12.394-8.5-13.719-16.748C336.061,170.957,335.784,170.021,335.49,168.757z M293.965,168.103
			c-1.482,9.328-6.184,15.26-13.38,19.323c-2.404,1.355-4.904,2.538-7.318,3.879c-0.967,0.538-1.816,1.288-2.721,1.942
			c0.104,0.303,0.207,0.606,0.311,0.91c10.658,0,21.316,0,32.255,0C300.198,185.858,297.256,177.477,293.965,168.103z
			 M250.994,261.901c4.069-2.007,7.478-0.221,10.505,2.061c5.553,4.184,10.923,8.616,16.27,13.064
			c1.256,1.045,2.114,2.568,3.059,3.75c1.548-5.671,2.893-10.597,4.29-15.714c-4.22-0.236-8.806-0.596-13.398-0.724
			c-5.519-0.153-9.756-2.316-12.601-7.158c-1.958-3.33-4.074-6.567-6.153-9.824c-0.351-0.548-0.875-0.985-1.972-2.191
			C250.994,251.268,250.994,256.426,250.994,261.901z M348.197,278.583c4.874-3.646,9.462-7.293,14.274-10.615
			c4.9-3.383,10.413-5.219,16.457-5.005c-0.289-5.799-0.563-11.319-0.854-17.128c-3.431,4.867-6.576,9.389-9.786,13.866
			c-2.91,4.062-6.82,6.073-11.913,6.018c-3.791-0.041-7.588,0.34-11.401,0.533C346.069,270.444,347.093,274.359,348.197,278.583z"/>
		<path id="left-quadriceps" fill="#FFFFFF" d="M366.001,389.555c0,0.819,0.144,1.669-0.022,2.454
			c-1.372,6.491,0.554,12.242,3.849,17.714c2.911,4.832,5.663,9.769,8.764,14.477c1.299,1.974,3.077,3.851,5.06,5.101
			c2.848,1.796,4.154,4.018,4.906,7.314c5.215,22.886,3.369,45.621-1.938,68.082c-1.77,7.487-5.99,14.419-9.299,21.508
			c-0.851,1.824-2.483,3.283-4.16,5.423c-1.488-8.151-2.852-15.614-4.325-23.685c-0.879,0.969-1.473,1.413-1.787,2.005
			c-3.799,7.123-7.4,14.355-11.387,21.372c-2.005,3.526-4.567,6.765-7.103,9.956c-1.972,2.482-4.563,2.507-6.505,0.093
			c-1.976-2.454-4.131-5.126-4.979-8.06c-4.426-15.289-8.248-30.653-9.697-46.667c-0.981-10.829,1.684-20.39,5.874-29.792
			c7.824-17.563,15.957-34.992,24.129-52.398c2.419-5.154,5.398-10.045,8.123-15.058C365.666,389.447,365.834,389.5,366.001,389.555
			z"/>
		<path id="right-quadriceps" fill="#FFFFFF" d="M264.889,389.726c9.469,20.797,18.957,41.589,28.401,62.4
			c5.765,12.704,7.147,25.909,6.236,39.857c-0.846,12.94-3.704,25.361-6.429,37.885c-0.488,2.243-1.345,4.469-2.396,6.516
			c-2.665,5.188-8.098,5.485-11.301,0.718c-5.24-7.801-10.446-15.626-15.694-23.421c-0.207-0.308-0.707-0.416-1.946-1.104
			c0,7.872,0,15.171,0,22.47c-0.475,0.173-0.951,0.346-1.427,0.521c-1.295-1.606-2.68-3.149-3.872-4.827
			c-14.498-20.393-19.542-43.357-18.027-67.95c0.495-8.044,1.819-16.045,2.972-24.035c0.174-1.202,1.401-2.313,2.288-3.341
			c1.981-2.296,4.507-4.248,5.998-6.813c3.333-5.729,6.037-11.821,9.245-17.63c3.618-6.551,5.72-13.378,4.535-21.027
			C263.943,389.87,264.416,389.798,264.889,389.726z"/>
		<path fill="#FFFFFF" d="M368.251,514.03c0.836,5.419,1.635,10.844,2.542,16.252c0.169,1.002,0.684,2.672,1.197,2.734
			c1,0.124,2.438-0.384,3.12-1.145c2.115-2.36,3.96-4.961,6.163-7.796c0.508,6.512,0.907,12.733,1.497,18.938
			c1.193,12.553,2.496,25.094,3.731,37.642c0.107,1.096,0.093,2.207,0.07,3.311c-0.175,9.298-0.515,18.598-0.521,27.896
			c-0.019,27.295-3.548,54.051-11.877,80.104c-0.327,1.022-0.735,2.02-1.813,2.977c0-1.976-0.091-3.955,0.017-5.925
			c0.845-15.711,1.383-31.438-1.65-46.978c-3.388-17.356-9.093-33.933-17.673-49.479c-0.999-1.81-1.514-4.201-1.371-6.265
			c0.47-6.891-1.322-12.442-7.041-16.889c-7.819-6.078-7.912-14.805-6.931-23.653c0.156-1.418,0.509-2.814,0.823-4.51
			c0.646,0.414,1.193,0.69,1.657,1.073c4.521,3.722,6.826,3.756,10.62-0.816c2.803-3.376,5.163-7.173,7.352-10.993
			c3.122-5.45,5.906-11.094,8.834-16.654C367.416,513.912,367.834,513.971,368.251,514.03z"/>
		<path fill="#FFFFFF" d="M256.545,693.4c-2.243-9.444-4.237-18.956-6.777-28.32c-6.247-23.027-4.434-46.633-5.425-70.043
			c-0.252-5.971-1.059-11.936-1.008-17.896c0.054-6.404,0.818-12.804,1.271-19.207c0.865-12.247,1.729-24.494,2.601-36.742
			c0.02-0.286,0.141-0.566,0.365-1.428c2.243,3.673,4.18,6.962,6.237,10.173c1.312,2.046,2.628,4.139,4.286,5.885
			c0.761,0.803,2.461,1.29,3.52,1.031c0.708-0.173,1.433-1.896,1.465-2.945c0.151-4.976,0.066-9.956,0.066-15.894
			c1.251,1.032,1.693,1.265,1.948,1.627c3.761,5.342,7.683,10.584,11.182,16.097c2.965,4.669,5.915,8.667,12.376,5.42
			c1.868,10.813,2.508,20.806-5.701,29.088c-2.807,2.831-3.777,6.371-3.821,10.309c-0.078,7.115-3.518,13.155-6.595,19.248
			c-6.172,12.213-11.78,24.688-12.929,38.467c-1.175,14.11-1.542,28.289-2.163,42.442c-0.183,4.181-0.027,8.376-0.027,12.564
			C257.126,693.316,256.835,693.358,256.545,693.4z"/>
		<path id="left-chest" fill="#FFFFFF" d="M316.448,233.75c-0.416-7.56,1.447-14.479,4.355-21.342
			c1.621-3.824,2.443-8.016,3.339-12.104c0.396-1.807,0.927-2.647,2.907-2.739c10.927-0.506,21.846-1.222,32.774-1.632
			c1.468-0.055,3.649,0.794,4.374,1.938c4.964,7.84,9.758,15.796,14.286,23.895c1.031,1.845,1.085,4.391,1.11,6.62
			c0.129,11.739-5.44,21.13-12.486,29.93c-2.798,3.495-6.036,5.732-10.704,5.54c-8.268-0.34-16.578-0.193-24.799-0.988
			c-7.033-0.68-11.901-4.822-13.151-12.052C317.479,245.18,317.096,239.443,316.448,233.75z"/>
		<path id="right-chest" fill="#FFFFFF" d="M286.327,196.533c5.094,0,10.188-0.077,15.277,0.069
			c0.957,0.027,2.525,0.763,2.734,1.483c2.645,9.124,5.474,18.223,7.483,27.496c1.981,9.142-0.762,18.107-3.187,26.792
			c-2.064,7.391-8.997,9.931-15.65,10.414c-8.216,0.596-16.588-0.101-24.813-0.981c-2.42-0.258-4.938-2.703-6.752-4.734
			c-2.185-2.445-3.39-5.747-5.501-8.274c-5.127-6.138-5.171-13.578-5.146-20.778c0.013-3.133,2.257-6.402,3.938-9.354
			c3.83-6.728,7.928-13.303,11.936-19.929c1.374-2.271,3.25-3.198,6.061-3.019c4.523,0.289,9.08,0.077,13.622,0.077
			C286.328,196.041,286.328,196.287,286.327,196.533z"/>
		<path fill="#FFFFFF" d="M314.529,334.191c5.55,7.707,18.798,11.03,29.615,5.999c0.59,7.379,0.505,14.476-2.177,21.508
			c-6.491,17.021-13.827,33.772-17.332,51.801c-0.632,3.249-1.263,6.532-2.311,9.659c-1.791,5.341-9.492,7.979-14.258,4.925
			c-0.938-0.602-1.566-2.024-1.889-3.193c-4.647-16.829-9.128-33.706-13.85-50.514c-1.818-6.474-4.498-12.717-6.105-19.234
			c-1.097-4.446-1.017-9.183-1.512-14.304c5.712,2.531,11.028,2.187,16.425,1.334C306.689,341.293,310.912,338.287,314.529,334.191z
			"/>
		<path fill="#FFFFFF" d="M290.198,140.503c-0.274,0.844-0.55,1.688-0.824,2.534c-5.585-3.33-8.935-12.621-6.729-18.634
			c0.873-2.379,2.897-3.001,4.976-1.469c0.857,0.634,1.613,1.406,3.118,2.736c0.397-2.232,0.86-3.75,0.903-5.28
			c0.119-4.316-0.054-8.643,0.128-12.956c0.092-2.18,0.422-4.435,1.132-6.486c1.979-5.718,4.326-6.73,10.149-5.068
			c7.294,2.082,14.638,2.17,21.939,0.018c6.687-1.97,10.144-0.532,11.936,6.354c1.493,5.736,1.799,11.778,2.692,17.674
			c0.372,2.452,0.906,4.878,1.445,7.734c1.602-0.943,2.613-1.539,3.973-2.339c2.215,3.845,1.919,7.891,0.81,11.738
			c-0.877,3.036-2.079,6.307-6.383,7.372c0-1.773,0-3.164,0-4.554c-0.303-0.039-0.604-0.077-0.907-0.115
			c-0.86,3.335-1.818,6.649-2.562,10.012c-1.897,8.604-7.667,13.208-15.809,15.144c-12.809,3.045-27.1-7.283-28.381-20.313
			c-0.134-1.365-0.445-2.713-0.675-4.069C290.819,140.525,290.509,140.514,290.198,140.503z M285.364,127.477
			c-1.596,3.855,2.477,5.73,3.02,8.879c0.117,0.682,1.861,1.083,2.855,1.615c0.079-0.218,0.157-0.437,0.235-0.655
			C289.437,134.036,287.4,130.756,285.364,127.477z M338.532,136.372c3.739-1.891,5.515-5.618,4.299-8.062
			C341.304,131.175,339.918,133.773,338.532,136.372z"/>
		<path id="left-forearms" fill="#FFFFFF" d="M458.797,386.12c-0.479-1.122-0.813-2.34-1.462-3.352
			c-8.259-12.846-16.889-25.468-24.708-38.572c-3.634-6.086-5.916-13.023-8.386-19.73c-0.785-2.134-0.606-4.854-0.154-7.165
			c0.971-4.944,2.406-9.797,3.861-15.509c10.004,12.724,20.87,23.733,23.008,40.066c1.446,11.048,7.529,20.479,12.041,30.425
			c2.054,4.526,4.434,8.903,6.861,13.741c-5.251,3.12-10.407,6.183-15.354,9.121c-4.078-6.578-7.885-13.181-12.157-19.466
			c-3.411-5.017-6.775-10.345-11.254-14.295c-8.31-7.329-12.414-16.461-14.396-26.948c-0.259-1.367-0.618-2.715-0.972-4.25
			c-1.799,2.056-0.691,10.691,3.545,18.656c3.051,5.735,7.709,10.617,11.194,15.271c-3.916-1.105-19.269-15.511-25.682-24.587
			c-7.41-10.486-9.104-22.576-10.308-35.655c7.534,4.469,14.444,8.701,21.491,12.695c3.806,2.157,6.08,4.743,6.882,9.432
			c1.429,8.37,5.595,15.731,10.328,22.803c7.755,11.584,15.184,23.388,22.754,35.096c0.578,0.896,1.19,1.77,1.788,2.653
			C458.078,386.407,458.438,386.263,458.797,386.12z"/>
		<path id="right-forearms" fill="#FFFFFF" d="M200.801,363.441c9.326-9.457,14.345-20.825,16.179-33.653
			c-0.362-0.163-0.727-0.326-1.091-0.489c-0.371,0.994-0.878,1.96-1.091,2.986c-2.18,10.499-6.561,19.748-13.742,27.935
			c-6.479,7.385-12.169,15.487-17.902,23.491c-2.477,3.458-4.186,7.465-6.349,11.417c-4.723-2.623-9.607-5.334-14.602-8.107
			c2.052-4.041,3.998-7.751,5.835-11.514c3.541-7.25,7.391-14.38,10.399-21.848c2.212-5.49,3.549-11.38,4.825-17.192
			c3.043-13.862,13.553-28.424,20.857-35.063c1.097,2.984,2.413,5.604,3.015,8.379c1.815,8.355,1.495,16.707-2.913,24.181
			c-6.457,10.953-13.537,21.536-20.185,32.379c-3.523,5.747-6.724,11.693-9.989,17.593c-0.501,0.904-0.577,2.042-0.849,3.072
			c0.288,0.117,0.578,0.234,0.867,0.351c0.431-0.658,0.881-1.304,1.287-1.977c6.104-10.132,12.192-20.274,18.305-30.401
			c4.112-6.816,8.516-13.475,12.271-20.481c1.781-3.322,2.597-7.242,3.378-10.989c0.453-2.171,1.232-3.478,3.253-4.428
			c3.801-1.789,7.541-3.737,11.171-5.851c4.067-2.369,7.984-4.994,11.876-7.45C238.205,320.959,219.258,352.971,200.801,363.441z"/>
		<path id="left-abs" fill="#FFFFFF" d="M319.354,258.248c6.122,6.387,13.169,7.209,20.326,7.41c2.592,0.073,3.338,1.611,4.102,3.5
			c2.913,7.213,2.531,14.754,2.229,22.285c-0.589,14.602-1.156,29.206-1.851,43.803c-0.054,1.119-0.746,2.585-1.626,3.228
			c-6.28,4.587-21.055,2.093-25.513-4.33c-0.887-1.275-1.391-3.095-1.389-4.663c0.023-19.264-0.009-38.531,0.438-57.787
			C316.166,267.451,318.077,263.25,319.354,258.248z"/>
		<path id="right-abs" fill="#FFFFFF" d="M308.126,259.239c3.394,4.837,5.766,10.826,5.762,17.563
			c-0.012,17.381-0.064,34.764-0.314,52.145c-0.027,1.969-0.936,4.391-2.277,5.796c-6.229,6.513-14.195,6.974-22.475,5.605
			c-2.836-0.47-4.236-2.055-4.06-5.278c0.304-5.511,0.279-11.049,0.153-16.571c-0.199-8.742-0.723-17.478-0.864-26.22
			c-0.102-6.285-0.203-12.617,0.436-18.854c0.506-4.936,3.082-8.088,8.932-8.838C298.268,263.968,302.848,261.25,308.126,259.239z"
			/>
		<path id="left-biceps" fill="#FFFFFF" d="M421.7,317.941c-1.172-0.634-1.937-1.015-2.67-1.45
			c-5.894-3.501-11.922-6.803-17.615-10.605c-3.137-2.094-6.863-4.494-8.348-7.677c-10.019-21.49-15.956-43.831-11.761-67.847
			c0.054-0.305,0.189-0.596,0.413-1.273c1.375,2.443,2.545,4.662,3.844,6.803c3.691,6.088,8.784,10.824,14.736,14.598
			c7.651,4.852,13.161,11.405,16.505,19.802c2.373,5.957,4.626,11.964,7.126,17.866c3.271,7.724,2.093,15.339-0.168,22.98
			C423.117,313.318,422.445,315.488,421.7,317.941z"/>
		<path id="right-biceps" fill="#FFFFFF" d="M211.074,318.165c-1.868-6.294-3.655-11.946-5.181-17.668
			c-0.493-1.848-0.714-3.958-0.354-5.813c2.517-12.955,7.912-24.808,14.579-36.081c1.353-2.287,3.529-4.403,5.821-5.762
			c8.877-5.264,15.611-12.61,21.465-20.914c0.312-0.439,0.691-0.83,1.674-1.996c0.175,5.024,0.349,9.248,0.465,13.473
			c0.357,12.979-1.516,25.526-6.602,37.603c-2.731,6.488-4.532,13.364-7.155,19.904c-0.854,2.13-2.641,4.289-4.582,5.508
			C224.493,310.636,217.524,314.445,211.074,318.165z"/>
		<path fill="#FFFFFF" d="M480.07,461.439c-1.982-3.766-4.085-7.474-5.921-11.311c-2.384-4.985-4.494-10.102-6.864-15.093
			c-0.568-1.2-1.697-2.137-2.569-3.193c-0.689,1.275-1.749,2.483-1.998,3.841c-0.657,3.577-0.969,7.22-1.404,10.836
			c-0.167,1.378-0.304,2.758-0.453,4.137c-0.448,0.029-0.896,0.06-1.346,0.088c-0.569-3.833-1.248-7.654-1.685-11.503
			c-0.567-5.038-1.077-10.09-1.375-15.15c-0.504-8.594-0.853-17.196-1.158-25.801c-0.025-0.688,0.604-1.679,1.221-2.064
			c4.577-2.86,9.228-5.603,14.229-8.607c3.434,8.041,10.737,11.197,17.31,15.175c6.727,4.073,11.666,9.659,15.606,17.619
			c-1.78-0.812-2.782-1.108-3.596-1.677c-1.173-0.817-2.22-1.82-3.304-2.766c-5.552-4.843-11.111-9.205-19.269-9.024
			c-3.925,0.087-7.894-1.832-12.362-2.607c1.293,0.97,2.461,2.466,3.901,2.806c4.069,0.957,8.259,1.404,12.387,2.131
			c1.721,0.302,3.466,0.64,5.092,1.248c1.875,0.705,2.462,1.974,2.608,4.271c0.186,2.895,1.386,6.018,3.019,8.458
			c2.941,4.4,6.658,8.275,9.8,12.555c1.645,2.241,2.757,4.874,4.109,7.33c-0.272,0.328-0.544,0.656-0.815,0.984
			c-1.58-0.479-3.289-0.718-4.718-1.48c-4.916-2.628-8.49-6.646-11.312-11.408c-0.979-1.653-2.197-3.166-3.307-4.742
			c-0.44,0.173-0.88,0.347-1.32,0.521c0.293,1.307,0.486,2.645,0.895,3.912c2.433,7.566,4.969,15.102,7.326,22.689
			c0.383,1.231,0.054,2.686,0.054,4.035c-0.283,0.137-0.566,0.271-0.85,0.408c-1.008-1.185-2.289-2.229-2.973-3.576
			c-2.942-5.814-5.665-11.74-8.563-17.577c-1.092-2.196-2.447-4.262-3.684-6.387c-0.434,0.119-0.868,0.237-1.302,0.355
			c0,1.688-0.319,3.45,0.057,5.05c1.442,6.134,3.164,12.2,4.66,18.321c0.542,2.216,0.744,4.515,1.103,6.774
			C480.89,461.16,480.48,461.3,480.07,461.439z M485.416,416.275c-3.49,2.074-6.784,4.681-10.53,6.071
			c-3.747,1.393-7.946,1.568-12.245,2.331C468.845,428.122,481.331,422.938,485.416,416.275z"/>
		<path fill="#FFFFFF" d="M167.518,403.395c-0.375,0.199-0.869,0.31-1.104,0.617c-3.357,4.366-8.192,5.521-13.249,5.803
			c-5.272,0.297-9.485,2.436-13.31,5.951c-2.086,1.92-4.597,3.443-7.095,4.819c-1.234,0.681-2.875,0.622-5.335,1.088
			c1.006-2.556,1.446-4.347,2.352-5.856c3.982-6.635,9.753-11.399,16.46-15.061c5.664-3.09,11.34-6.111,14.764-12.224
			c5.094,2.789,10.025,5.446,14.894,8.216c0.516,0.293,0.876,1.232,0.933,1.902c0.741,9.074,0.512,17.977-1.763,26.981
			c-1.739,6.892-1.62,14.248-2.372,21.393c-0.122,1.158-0.48,2.292-0.729,3.437c-0.317,0.001-0.634,0.001-0.951,0.001
			c-0.623-6.309-1.247-12.618-1.983-20.074c-1.102,1.739-1.788,2.666-2.313,3.677c-3.918,7.541-7.789,15.104-11.72,22.64
			c-0.48,0.92-1.234,1.697-2.337,3.182c-0.223-11.092,5.921-20.278,5.638-30.514c-0.387-0.151-0.773-0.303-1.161-0.454
			c-0.773,1.433-1.51,2.887-2.325,4.297c-3.916,6.775-7.833,13.551-11.801,20.296c-0.713,1.212-1.674,2.278-2.52,3.412
			c-0.438-0.265-0.875-0.528-1.313-0.792c0.649-2.2,1.119-4.475,1.982-6.589c2.55-6.242,5.318-12.396,7.854-18.643
			c0.584-1.44,0.572-3.121,0.257-4.908c-6.214,7.531-13.214,13.775-20.824,19.354c-0.263-0.139-0.525-0.276-0.788-0.417
			c0.519-1.591,0.737-3.373,1.61-4.738c3.266-5.114,6.829-10.036,10.107-15.143c1.826-2.844,3.199-5.977,4.997-8.842
			c0.851-1.355,2.021-2.982,3.394-3.438c2.693-0.893,5.619-1.137,8.467-1.49c3.97-0.494,7.536-1.786,10.305-4.784
			c0.674-0.729,1.141-1.651,1.703-2.484C167.999,403.803,167.758,403.598,167.518,403.395z M147.648,417.465
			c0.272,6.138,15.43,11.41,22.848,7.342c-4.396-0.392-8.563-0.069-12.225-1.281C154.451,422.26,151.12,419.52,147.648,417.465z"/>
		<path id="left_x28_upper_x29_-obliques" fill="#FFFFFF" d="M345.836,326.932c0.733-14.599,1.443-29.199,2.253-43.793
			c0.055-0.979,0.594-2.242,1.337-2.823c5.14-4.02,10.183-8.23,15.692-11.683c3.075-1.927,6.913-2.925,10.546-3.592
			c3.784-0.695,6.549,3.096,5.421,6.929c-0.495,1.681-1.145,3.385-2.069,4.862c-8.124,12.943-13.177,26.701-10.009,42.186
			c1.667,8.148-1.428,13.384-8.16,17.221c-3.245,1.849-6.341,4.071-9.774,5.448c-3.574,1.433-4.855,0.271-4.889-3.462
			c-0.033-3.764-0.008-7.527-0.008-11.292C346.063,326.932,345.948,326.932,345.836,326.932z"/>
		<path id="right_x28_upper_x29_-obliques" fill="#FFFFFF" d="M282.528,340.876c-2.84,0.971-5.608-0.187-8.125-1.814
			c-3.717-2.404-7.376-4.93-10.822-7.698c-0.958-0.769-1.517-2.58-1.511-3.909c0.023-5.536,0.426-11.07,0.517-16.607
			c0.197-11.834-2.333-22.852-9.916-32.332c-1.309-1.635-2.375-3.474-3.449-5.281c-1.059-1.782-0.077-7.697,1.498-8.919
			c2.25-1.746,4.786-1.979,7.125-0.388c8.418,5.73,16.847,11.483,23.218,19.624c0.595,0.76,0.726,2.03,0.747,3.069
			c0.275,12.942,0.514,25.883,0.708,38.826C282.59,330.422,282.528,335.399,282.528,340.876z"/>
		<path fill="#FFFFFF" d="M410.262,752.061c-2.569-3.646-3.275-4.06-6.367-3.424c1.48,1.142,2.774,2.138,4.466,3.44
			c-1.309,0.909-2.251,1.563-2.727,1.895c-2.364-1.7-4.421-3.18-6.479-4.657c-0.186,0.268-0.372,0.532-0.558,0.801
			c4.022,6.116,4.022,6.116,0.523,6.671c-0.4-3.257-2.233-5.165-5.324-5.711c-0.364,0.359-0.729,0.72-1.093,1.079
			c1.717,0.806,3.434,1.61,5.149,2.416c-5.284,3.404-7.2,2.984-10.077-0.674c-1.229-1.563-2.591-3.023-3.916-4.51
			c-0.107-0.121-0.401-0.079-1.744-0.298c2.742,3.983,5.057,7.344,7.45,10.821c-8.63,2.005-17.695-6.508-16.49-14.786
			c0.455-3.126,0.768-6.555-0.029-9.531c-2.331-8.722-2.671-17.45-1.711-26.344c0.415-3.847,0.47-7.731,0.688-11.58
			c5.321-0.589,10.539-1.168,15.86-1.758c-0.157,2.874-0.337,6.151-0.459,8.401c1.526,1.539,2.76,2.25,3.173,3.287
			c2.131,5.337,3.888,10.826,6.102,16.125c1.521,3.637,3.424,7.138,5.421,10.541c2.739,4.67,5.805,9.146,8.557,13.81
			c0.631,1.068,0.554,2.557,0.803,3.852C411.073,751.972,410.668,752.016,410.262,752.061z M379.912,712.739
			c-0.474,0.037-0.946,0.073-1.421,0.109c-0.266,3.126-0.63,6.248-0.772,9.38c-0.191,4.186-0.521,8.4-0.209,12.561
			c0.259,3.462,1.259,6.887,2.147,10.271c0.238,0.91,1.271,1.612,2.493,3.07c-1.103-4.694-2.506-8.333-2.698-12.033
			c-0.29-5.587,0.285-11.218,0.449-16.83C379.966,717.092,379.912,714.915,379.912,712.739z"/>
		<path fill="#FFFFFF" d="M242.146,707.292c0-4.158,0-8.317,0-12.455c5.143,0.681,10.26,1.357,15.85,2.098
			c0.249,2.3,0.656,4.896,0.788,7.503c0.513,10.199,0.263,20.328-1.874,30.405c-0.829,3.911-0.933,8.114-0.565,12.112
			c0.608,6.64-7.367,14.6-14.263,12.915c1.645-3.239,3.221-6.342,4.797-9.445c-0.295-0.188-0.589-0.378-0.884-0.565
			c-1.011,1.292-2.329,2.449-2.957,3.906c-0.934,2.162-2.7,2.799-4.62,3.135c-0.938,0.161-1.997-0.389-3.001-0.615
			c0.311-0.987,0.482-2.051,0.975-2.938c0.434-0.778,1.226-1.358,1.511-2.355c-3.156,0.271-4.189,2.582-4.97,5.803
			c-1.355-0.492-2.582-0.938-3.809-1.384c0.656-1.257,1.24-2.563,2.002-3.753c0.421-0.658,1.143-1.123,1.355-2.087
			c-3.035,0.489-5.021,2.152-5.638,5.322c-2.904-1.493-2.904-1.493,2.166-8.091c-1.564,0.524-2.383,0.752-3.162,1.073
			c-0.984,0.406-1.91,1.18-2.907,1.267c-1.279,0.112-3.002,0.116-3.78-0.625c-0.575-0.547-0.37-2.634,0.227-3.556
			c1.669-2.579,3.425-5.243,5.691-7.262c3.702-3.299,5.897-7.097,7.228-11.924c1.573-5.715,4.187-11.15,6.518-16.636
			c0.361-0.851,1.637-1.312,2.488-1.953C241.589,707.223,241.868,707.258,242.146,707.292z M248.518,748.883
			c5.151-3.489,5.266-28.364,0.235-36.863c-0.274,1.046-0.389,2.111-0.254,3.146c0.617,4.821,1.458,9.617,1.925,14.452
			C251.048,736.105,250.96,742.577,248.518,748.883z"/>
		<path id="left_x28_lower_x29_-obliques" fill="#FFFFFF" d="M325.19,419.445c1.271-5.379,2.045-10.034,3.482-14.478
			c3.535-10.922,7.26-21.786,11.129-32.595c3.307-9.239,7.91-18.132,6.293-28.5c10.287,0.723,15.853-6.935,23.293-12.02
			c0.456,8.914,0.435,17.422,1.452,25.806c0.985,8.118-1.02,13.602-8.373,18.259c-6.121,3.876-11.277,9.669-15.94,15.367
			c-7.057,8.624-13.313,17.904-19.918,26.9C326.43,418.428,326.152,418.598,325.19,419.445z"/>
		<path id="right_x28_lower_x29_-obliques" fill="#FFFFFF" d="M301.3,415.938c-8.922-10.84-17.803-21.713-26.786-32.501
			c-4.11-4.935-8.347-9.726-14.046-13.055c-1.225-0.716-2.214-3.155-2.071-4.686c1.011-10.869,2.346-21.707,3.596-32.722
			c7.108,3.299,11.9,10.99,20.98,9.913c0.39,3.948,0.265,7.798,1.227,11.354c2.132,7.882,4.956,15.573,7.228,23.42
			c3.443,11.9,6.66,23.865,9.958,35.807c0.201,0.727,0.271,1.488,0.403,2.233C301.626,415.779,301.463,415.859,301.3,415.938z"/>
		<path fill="#FFFFFF" d="M293.517,158.297c20.244,11.993,28.344,12.014,41.568-0.436c0,2.101,0.478,4.061-0.078,5.661
			c-3.481,10.021-7.217,19.955-10.813,29.936c-0.71,1.97-1.174,4.028-1.763,6.043c-1.516,5.186-2.764,10.47-4.633,15.526
			c-1.796,4.857-2.999,9.683-2.676,14.89c0.385,6.178-0.348,12.606,1.14,18.488c1.683,6.66,2.174,12.594-1.953,18.236
			c-1.631-2.903-3.475-6.095-5.195-9.352c-0.239-0.454,0.015-1.261,0.217-1.843c4.883-14.007,6.664-27.905,1.303-42.433
			c-5.355-14.505-9.669-29.396-14.354-44.145C295.18,165.402,294.428,161.824,293.517,158.297z"/>
		<path fill="#FFFFFF" d="M326.291,470.482c-4.015-11.849-7.233-23.793-5.395-36.409c0.252-1.729,0.701-3.54,1.537-5.049
			c10.798-19.501,23.792-37.288,40.896-51.818c0.486-0.414,1.055-0.731,1.752-1.208c1.585,5.556-0.078,10.334-2.483,14.99
			c-4.668,9.036-9.298,18.09-14.02,27.098c-8.486,16.193-15.39,33.059-21.479,50.272
			C326.846,469.071,326.562,469.774,326.291,470.482z"/>
		<path id="right-shoulders" fill="#FFFFFF" d="M266.055,194.995c-6.126,11.095-11.812,22.045-18.118,32.626
			c-6.302,10.574-14.546,19.425-26.031,25.289c-1.862-13.935-2.919-27.749,4.128-40.648c5.614-10.28,15.225-14.733,26.294-16.373
			C256.896,195.212,261.571,195.265,266.055,194.995z"/>
		<path fill="#FFFFFF" d="M264.049,374.941c1.894,1.914,3.925,3.71,5.658,5.759c9,10.645,18.087,21.222,26.782,32.108
			c3.062,3.834,4.884,8.626,7.646,12.729c6.171,9.168,4.537,18.912,2.417,28.679c-1.279,5.893-2.942,11.7-4.836,17.499
			c-4.509-21.104-16.824-38.891-23.641-58.888c-2.004-5.876-5.851-11.126-8.854-16.662
			C265.704,389.679,263.741,382.772,264.049,374.941z"/>
		<path id="left-shoulders" fill="#FFFFFF" d="M365.765,194.828c6.913-1.103,13.709,0.955,20.369,3.849
			c13.616,5.917,20.01,17.182,21.796,31.104c0.972,7.579,0.173,15.385,0.173,23.938c-8.912-6.051-17.03-11.252-21.756-20.087
			C379.47,220.775,372.68,207.874,365.765,194.828z"/>
		<path fill="#FFFFFF" d="M374.762,695.888c6.479-18.304,10.033-36.038,11.604-53.975c1.572-17.945,1.395-36.044,2.667-54.326
			c1.922,6.127,3.918,12.232,5.748,18.388c3.721,12.509,2.985,25.24,1.27,37.896c-2.111,15.565-4.666,31.072-7.213,46.575
			c-0.213,1.286-1.629,3.023-2.829,3.373C382.682,694.785,379.174,695.13,374.762,695.888z"/>
		<path fill="#FFFFFF" d="M242.184,582.659c0.316,12.468,0.851,24.935,0.887,37.401c0.038,12.656,0.407,25.232,3.324,37.629
			c2.854,12.128,5.537,24.296,8.491,37.313c-4.475-0.822-8.246-1.423-11.957-2.288c-0.615-0.144-1.277-1.395-1.388-2.206
			c-2.153-15.792-4.498-31.563-6.236-47.403c-1.588-14.461-1.74-28.996,1.239-43.344c1.205-5.806,3.104-11.468,4.688-17.194
			C241.551,582.598,241.868,582.629,242.184,582.659z"/>
		<path fill="#FFFFFF" d="M341.99,124.334c-0.579-5.035-0.87-10.125-1.829-15.086c-0.78-4.045-1.95-8.129-3.694-11.844
			c-1.956-4.162-5.804-5.264-10.146-3.831c-8.158,2.692-16.244,2.586-24.438,0.058c-4.443-1.371-7.416-0.223-9.356,4.018
			c-1.432,3.127-2.236,6.693-2.563,10.136c-0.426,4.489-0.104,9.05-0.104,13.873c-1.913-0.706-3.513-1.297-5.851-2.16
			c0.43-7.148,0.329-14.692,1.479-22.04c1.194-7.617,7.114-11.807,13.854-14.413c10.978-4.245,22.134-3.859,33.123,0.061
			c4.559,1.625,7.863,5.035,9.775,9.454c3.903,9.027,5.204,18.511,3.827,28.245c-0.203,1.434-1.951,2.649-2.984,3.966
			C342.717,124.625,342.354,124.48,341.99,124.334z"/>
		<path id="left-calves" fill="#FFFFFF" d="M351.087,594.117c14.277,25.684,21.691,53.023,19.771,82.637
			c-0.269-0.087-0.553-0.112-0.569-0.193c-2.544-12.526-8.411-23.798-14.056-35.018c-4.511-8.967-6.091-18.176-5.993-27.887
			C350.305,607.141,350.788,600.63,351.087,594.117z"/>
		<path id="right-calves" fill="#FFFFFF" d="M276.545,597.422c1.317,12.276,3.229,24.523-1.337,36.685
			c-5.324,14.174-10.373,28.45-15.45,42.434c0-6.475-0.255-13.198,0.071-19.894c0.339-6.957,0.78-13.971,2.024-20.805
			c1.222-6.705,3.124-13.354,5.435-19.771c2.31-6.415,5.496-12.515,8.297-18.752C275.906,597.352,276.225,597.387,276.545,597.422z"
			/>
		<path fill="#FFFFFF" d="M259.135,371.044c0.988,1.821,2.293,3.134,2.338,4.49c0.258,7.746,0.363,15.504,0.184,23.25
			c-0.05,2.11-1.013,4.317-1.979,6.271c-4.077,8.228-8.239,16.413-12.554,24.518c-0.873,1.638-2.544,2.849-4.215,4.023
			C245.564,412.296,250.321,391.682,259.135,371.044z"/>
		<path fill="#FFFFFF" d="M371.436,371.882c5.405,19,10.743,37.763,16.081,56.525c-0.445,0.258-0.89,0.515-1.335,0.771
			c-1.809-1.638-4.079-2.981-5.335-4.97c-4.074-6.446-7.944-13.037-11.524-19.769c-1.188-2.236-1.664-5.049-1.771-7.627
			c-0.269-6.403-0.002-12.83-0.226-19.235C367.234,374.9,367.849,373.05,371.436,371.882z"/>
		<path id="left-trapezius" fill="#FFFFFF" d="M335.49,168.757c0.294,1.264,0.569,2.2,0.724,3.155
			c1.325,8.249,5.781,13.862,13.719,16.748c3.456,1.256,6.777,2.883,10.159,4.342c-0.08,0.499-0.16,0.997-0.24,1.495
			c-11.297,0.563-22.595,1.127-34.395,1.716C328.924,186.728,332.141,177.925,335.49,168.757z"/>
		<path id="right-trapezius" fill="#FFFFFF" d="M293.965,168.103c3.291,9.374,6.233,17.755,9.146,26.054
			c-10.938,0-21.597,0-32.255,0c-0.104-0.303-0.208-0.606-0.311-0.91c0.903-0.654,1.753-1.404,2.721-1.942
			c2.414-1.341,4.914-2.524,7.318-3.879C287.782,183.363,292.483,177.431,293.965,168.103z"/>
		<path fill="#FFFFFF" d="M250.994,261.901c0-5.475,0-10.633,0-16.737c1.097,1.207,1.622,1.643,1.972,2.191
			c2.08,3.257,4.196,6.494,6.153,9.824c2.845,4.842,7.082,7.004,12.601,7.158c4.593,0.128,9.179,0.488,13.398,0.724
			c-1.397,5.117-2.742,10.043-4.29,15.714c-0.944-1.182-1.803-2.705-3.059-3.75c-5.347-4.448-10.717-8.88-16.27-13.064
			C258.471,261.68,255.063,259.894,250.994,261.901z"/>
		<path fill="#FFFFFF" d="M348.197,278.583c-1.104-4.224-2.128-8.14-3.223-12.331c3.813-0.193,7.61-0.574,11.402-0.533
			c5.092,0.055,9.002-1.957,11.912-6.018c3.21-4.477,6.355-8.999,9.786-13.866c0.289,5.809,0.563,11.329,0.854,17.128
			c-6.044-0.214-11.557,1.622-16.457,5.005C357.658,271.29,353.071,274.938,348.197,278.583z"/>
		<path d="M285.364,127.477c2.037,3.279,4.073,6.559,6.11,9.838c-0.079,0.218-0.157,0.438-0.235,0.655
			c-0.994-0.531-2.738-0.933-2.855-1.615C287.84,133.208,283.768,131.333,285.364,127.477z"/>
		<path d="M338.532,136.372c1.386-2.599,2.771-5.197,4.299-8.062C344.047,130.754,342.272,134.481,338.532,136.372z"/>
		<path d="M485.416,416.275c-4.085,6.662-16.571,11.847-22.775,8.402c4.299-0.763,8.498-0.938,12.245-2.331
			C478.632,420.956,481.926,418.35,485.416,416.275z"/>
		<path d="M147.648,417.465c3.473,2.055,6.804,4.795,10.623,6.061c3.661,1.212,7.829,0.891,12.225,1.281
			C163.077,428.875,147.92,423.603,147.648,417.465z"/>
		<path d="M379.912,712.739c0,2.176,0.054,4.353-0.011,6.526c-0.164,5.612-0.739,11.243-0.449,16.83
			c0.192,3.7,1.597,7.339,2.698,12.033c-1.222-1.458-2.255-2.16-2.493-3.07c-0.89-3.384-1.89-6.809-2.147-10.271
			c-0.313-4.159,0.018-8.375,0.209-12.562c0.144-3.131,0.508-6.253,0.772-9.379C378.966,712.813,379.439,712.776,379.912,712.739z"
			/>
		<path d="M248.518,748.883c2.443-6.306,2.531-12.776,1.905-19.265c-0.466-4.835-1.309-9.631-1.925-14.452
			c-0.134-1.035-0.021-2.102,0.254-3.146C253.781,720.519,253.668,745.394,248.518,748.883z"/>
	</g>
</g>
</svg>
