<?xml version="1.0" encoding="utf-8"?>
<!-- Generator: Adobe Illustrator 16.0.0, SVG Export Plug-In . SVG Version: 6.00 Build 0)  -->
<!DOCTYPE svg PUBLIC "-//W3C//DTD SVG 1.1//EN" "http://www.w3.org/Graphics/SVG/1.1/DTD/svg11.dtd">
<svg version="1.1" id="Layer_1" xmlns="http://www.w3.org/2000/svg" xmlns:xlink="http://www.w3.org/1999/xlink" x="0px" y="0px"
	 width="612px" height="792px" viewBox="0 0 612 792" enable-background="new 0 0 612 792" xml:space="preserve">
<g>
	<g>
		<path fill="#FFFFFF" d="M639.277,996.364c-221.666,0-443.332,0-664.997,0c0-399.441,0-798.883,0-1198.325
			c221.666,0,443.331,0,664.997,0C639.277,197.481,639.277,596.923,639.277,996.364z M233.056,216.567
			c0.282,0.02,0.563,0.04,0.846,0.06c1.026,4.724,2.167,9.427,3.056,14.177c2.149,11.5,2.851,23.337,8.121,34.098
			c0.272,0.558,0.314,1.271,0.318,1.914c0.062,10.745,0.242,21.492,0.06,32.233c-0.062,3.61-0.781,7.277-1.688,10.792
			c-3.145,12.2-6.692,24.299-9.734,36.523c-4.913,19.741-10.319,39.367-10.757,59.973c-0.347,16.294-1.023,32.545,1.523,48.74
			c2.663,16.922,2.266,33.694-2.263,50.353c-1.104,4.063-1.291,8.551-1,12.78c0.477,6.975-0.016,13.414-3.228,19.941
			c-5.883,11.952-12.074,23.751-13.101,37.646c-1.509,20.425-4.427,40.729-4.442,61.285c-0.008,10.061-1.185,20.114-1.558,30.182
			c-0.435,11.713-0.964,23.445-0.705,35.154c0.205,9.301,5.641,14.024,13.253,12.573c4.304-0.821,7.789-3.278,10.247-6.864
			c3.312-4.833,6.47-9.781,9.476-14.811c1.23-2.06,2.255-4.38,2.75-6.714c2.015-9.486-0.224-18.408-5.274-26.335
			c-2.809-4.405-2.969-8.021-0.919-12.533c6.539-14.396,12.398-29.119,19.389-43.287c5.583-11.317,7.996-23.156,8.789-35.489
			c0.783-12.168,2.769-23.936,9.081-34.67c1.604-2.729,2.639-5.871,3.499-8.945c3.666-13.094,7.114-26.248,10.745-39.352
			c3.573-12.896,7.025-25.83,10.978-38.609c4.847-15.671,7.553-31.656,7.689-48.013c0.056-6.525,2.541-11.935,5.825-17.755
			c1.433,4.908,3.498,9.426,3.96,14.104c0.948,9.575,0.451,19.307,1.604,28.845c2.149,17.809,5.194,35.455,12.776,52.019
			c2.514,5.487,4.491,11.374,5.674,17.286c3.399,17.009,8.416,33.439,15.49,49.282c1.514,3.386,2.618,7.124,3.023,10.798
			c0.801,7.258,1.286,14.581,1.34,21.882c0.068,9.262,1.944,18.014,5.888,26.346c7.621,16.104,15.001,32.3,20.579,49.269
			c1.304,3.961,1.733,7.531-0.161,11.434c-1.438,2.964-2.315,6.215-3.299,9.383c-2.481,8.015-3.092,16.104-0.311,24.163
			c2.072,6.008,4.628,11.805,9.961,15.749c5.185,3.836,14.002,3.641,16.547-0.966c2.346-4.243,4.208-9.119,4.765-13.894
			c0.672-5.762-0.091-11.721-0.528-17.571c-0.869-11.594-2.276-23.155-2.854-34.761c-0.912-18.369-1.209-36.77-1.997-55.146
			c-0.395-9.207-1.912-18.23-5.461-26.875c-2.178-5.303-3.753-10.853-5.626-16.281c-0.935-2.71-2.099-5.354-2.858-8.108
			c-1.072-3.892-2.219-7.814-2.702-11.8c-0.826-6.806-0.836-13.712-1.764-20.497c-2.966-21.741-3.042-43.534-0.995-65.304
			c1.604-17.056,2.189-34.05-0.444-51c-1.461-9.395-3.701-18.665-5.408-28.024c-2.302-12.624-4.306-25.264-9.61-37.167
			c-1.696-3.809-2.025-8.388-2.271-12.655c-0.769-13.382-1.104-26.79-1.823-40.176c-0.166-3.077,0.074-5.793,1.462-8.619
			c1.349-2.744,2.316-5.768,2.906-8.776c2.067-10.528,3.893-21.104,5.826-31.659c0.397-2.174,0.87-4.333,1.494-7.415
			c1.155,2.099,1.9,3.202,2.404,4.405c4.994,11.935,9.768,23.968,15.012,35.792c1.978,4.459,3.284,8.802,3.862,13.705
			c1.484,12.613,7.398,23.747,14.594,33.815c9.108,12.75,16.767,26.31,24.813,39.676c4.255,7.068,5.819,14.444,4.797,22.564
			c-0.697,5.532-1.15,11.305,2.103,16.154c3.513,5.235,4.29,10.752,3.689,16.755c-0.176,1.756-0.141,3.549-0.038,5.314
			c0.187,3.199,0.157,6.472,0.897,9.55c0.36,1.502,2.251,2.636,3.448,3.937c0.972-1.313,2.581-2.529,2.794-3.955
			c0.601-4.029,0.598-8.146,0.892-12.227c0.22-3.025,0.531-6.043,0.803-9.065c0.465-0.044,0.931-0.09,1.395-0.135
			c0.813,3.231,1.897,6.422,2.371,9.703c0.724,5.035,0.868,10.153,1.608,15.187c0.201,1.371,1.655,2.559,2.535,3.83
			c0.896-1.229,2.31-2.354,2.568-3.705c0.452-2.346,0.385-4.844,0.19-7.25c-0.453-5.637-1.111-11.258-1.688-16.885
			c0.305-0.059,0.607-0.116,0.913-0.174c2.346,4.563,4.293,9.227,4.642,14.53c0.202,3.064,0.674,6.166,1.515,9.109
			c0.345,1.207,1.983,2.043,3.033,3.045c0.648-1.184,1.563-2.301,1.884-3.567c0.451-1.787,0.464-3.687,0.664-5.55
			c4.573,0.859,5.673-0.045,4.763-4.516c-1.016-4.979-2.42-9.883-3.827-14.771c-0.747-2.594-1.517-4.967,0.254-7.547
			c0.75-1.093,0.834-2.738,0.948-4.155c0.758-9.416-4.285-15.889-11.013-21.496c-0.709-0.59-1.578-1.212-1.896-2.01
			c-3.134-7.913-6.345-15.803-9.192-23.822c-6.328-17.819-12.008-35.882-18.811-53.516c-5.796-15.022-13.169-29.431-19.152-44.388
			c-6.222-15.553-9.085-31.974-9.055-48.701c0.019-10.248-1.935-19.5-7.092-28.509c-6.603-11.533-16.146-17.815-29.05-19.404
			c-4.161-0.512-8.691,0.269-12.489-1.104c-6.799-2.46-13.356-5.775-19.66-9.358c-4.954-2.816-7.568-7.673-8.13-13.432
			c-0.333-3.414-0.688-6.841-0.722-10.265c-0.035-3.492-1.308-7.565,3.338-9.466c0.089-0.037,0.163-0.159,0.204-0.257
			c2.592-6.226,5.672-12.356,2.61-19.394c-0.535-1.23-0.582-2.799-0.45-4.173c0.716-7.477,0.178-14.83-1.9-22.05
			c-2.834-9.845-8.786-16.432-19.199-18.456c-10.141-1.972-19.582-0.227-28.385,5.083c-5.087,3.069-8.061,7.755-8.654,13.511
			c-0.813,7.905-1.023,15.874-1.444,23.817c-0.069,1.295,0.549,2.777,0.105,3.873c-1.728,4.284-0.932,8.509-0.136,12.752
			c0.674,3.591,2.113,6.586,6.693,6.768c0.536,9.276,0.279,18.389-5.786,25.705c-8.232,9.929-19.287,14.671-32.219,15.002
			c-8.722,0.224-17.418,1.113-24.611,6.569c-5.182,3.929-9.942,8.467-14.536,13.086c-1.667,1.675-3.075,4.304-3.282,6.616
			c-0.936,10.455-1.327,20.957-2.075,31.43c-0.25,3.506-0.287,7.268-1.603,10.419c-7.922,18.969-12.22,39.458-23.712,56.936
			c-0.603,0.915-1.018,1.965-1.431,2.989c-7.5,18.564-15.257,37.033-22.366,55.746c-3.725,9.801-6.344,20.024-9.375,30.083
			c-0.717,2.375-1.957,4.022-4.259,5.083c-4.667,2.151-7.827,5.826-9.363,10.682c-1.363,4.309-2.511,8.708-3.389,13.138
			c-0.315,1.595,0.41,3.403,0.695,5.108c0.202,1.209,0.826,2.468,0.638,3.603c-1.099,6.658-2.44,13.273-3.546,19.932
			c-0.196,1.188,0.334,2.494,0.53,3.745c1.208-0.301,2.415-0.608,3.627-0.896c0.277-0.065,0.572-0.055,0.925-0.082
			c0.072,1.544-0.156,3.078,0.287,4.385c0.485,1.43,1.593,2.646,2.43,3.957c0.915-1.116,2.292-2.1,2.661-3.375
			c1.479-5.096,2.609-10.289,3.938-15.43c0.56-2.166,1.29-4.29,1.941-6.431c0.269,0.052,0.536,0.104,0.806,0.156
			c0,1.591-0.049,3.184,0.009,4.773c0.226,6.195,0.333,12.401,0.85,18.574c0.118,1.408,1.695,2.696,2.601,4.041
			c0.953-1.214,1.997-2.369,2.819-3.664c0.39-0.609,0.453-1.482,0.497-2.246c0.208-3.646,0.194-7.31,0.574-10.934
			c0.454-4.328,1.147-8.652,4.54-12.113c0.782,2.838,1.276,5.644,1.438,8.468c0.223,3.865-0.075,7.779,0.396,11.604
			c0.206,1.665,1.771,3.163,2.72,4.737c1.146-1.483,2.319-2.947,3.417-4.465c0.237-0.328,0.27-0.851,0.286-1.286
			c0.172-4.524,0.165-9.063,0.527-13.571c0.306-3.81,0.25-7.929,1.736-11.304c3.044-6.915,4.125-13.905,3.666-21.343
			c-0.443-7.173,0.219-14.425,3.897-20.628c6.704-11.302,13.63-22.525,21.273-33.202c10.412-14.545,19.813-29.359,21.985-47.638
			c0.146-1.219,0.942-2.408,1.603-3.51c2.704-4.519,5.835-8.821,8.143-13.53C224.231,236.282,228.556,226.381,233.056,216.567z"/>
		<path d="M233.056,216.567c-4.5,9.814-8.824,19.715-13.575,29.407c-2.308,4.709-5.438,9.011-8.143,13.53
			c-0.66,1.103-1.457,2.291-1.603,3.51c-2.173,18.279-11.573,33.093-21.985,47.638c-7.644,10.676-14.569,21.9-21.273,33.202
			c-3.679,6.203-4.341,13.455-3.897,20.628c0.459,7.438-0.622,14.429-3.666,21.343c-1.486,3.375-1.432,7.494-1.736,11.304
			c-0.362,4.51-0.354,9.047-0.527,13.571c-0.017,0.437-0.049,0.958-0.285,1.286c-1.099,1.518-2.271,2.98-3.418,4.465
			c-0.948-1.574-2.515-3.072-2.72-4.737c-0.473-3.825-0.175-7.737-0.396-11.604c-0.163-2.824-0.656-5.63-1.438-8.468
			c-3.393,3.461-4.086,7.785-4.54,12.113c-0.38,3.624-0.365,7.288-0.574,10.934c-0.044,0.764-0.107,1.637-0.496,2.246
			c-0.824,1.295-1.867,2.45-2.82,3.664c-0.905-1.345-2.482-2.633-2.601-4.041c-0.517-6.173-0.624-12.379-0.85-18.574
			c-0.058-1.589-0.009-3.183-0.009-4.773c-0.27-0.052-0.537-0.104-0.806-0.156c-0.651,2.143-1.382,4.265-1.941,6.431
			c-1.328,5.141-2.459,10.334-3.938,15.43c-0.368,1.275-1.747,2.259-2.66,3.375c-0.838-1.311-1.945-2.527-2.431-3.957
			c-0.443-1.307-0.214-2.841-0.287-4.385c-0.353,0.027-0.647,0.017-0.925,0.082c-1.212,0.287-2.418,0.596-3.627,0.896
			c-0.195-1.251-0.727-2.559-0.53-3.745c1.105-6.656,2.447-13.273,3.546-19.932c0.188-1.135-0.436-2.394-0.638-3.603
			c-0.286-1.706-1.011-3.513-0.695-5.108c0.879-4.431,2.025-8.829,3.389-13.138c1.536-4.856,4.696-8.531,9.363-10.682
			c2.303-1.061,3.543-2.708,4.259-5.083c3.031-10.059,5.651-20.282,9.375-30.083c7.108-18.713,14.865-37.182,22.366-55.746
			c0.414-1.024,0.829-2.074,1.431-2.989c11.493-17.479,15.79-37.967,23.712-56.936c1.315-3.151,1.352-6.913,1.603-10.419
			c0.748-10.474,1.14-20.976,2.075-31.43c0.208-2.313,1.616-4.94,3.282-6.616c4.594-4.619,9.354-9.157,14.536-13.086
			c7.193-5.456,15.89-6.345,24.611-6.569c12.932-0.332,23.985-5.073,32.219-15.002c6.065-7.316,6.322-16.429,5.786-25.705
			c-4.581-0.181-6.02-3.176-6.693-6.768c-0.796-4.243-1.592-8.468,0.136-12.752c0.442-1.096-0.175-2.578-0.105-3.873
			c0.42-7.943,0.63-15.912,1.444-23.817c0.594-5.756,3.567-10.442,8.654-13.511c8.803-5.31,18.244-7.055,28.385-5.083
			c10.413,2.024,16.365,8.611,19.199,18.456c2.078,7.22,2.616,14.573,1.9,22.05c-0.132,1.374-0.085,2.942,0.45,4.173
			c3.062,7.037-0.02,13.167-2.61,19.394c-0.041,0.099-0.115,0.22-0.204,0.257c-4.646,1.901-3.373,5.974-3.338,9.466
			c0.033,3.424,0.389,6.851,0.722,10.265c0.562,5.759,3.176,10.615,8.13,13.432c6.304,3.583,12.861,6.898,19.66,9.358
			c3.798,1.373,8.328,0.592,12.489,1.104c12.903,1.589,22.447,7.872,29.05,19.404c5.157,9.01,7.109,18.261,7.092,28.509
			c-0.03,16.727,2.833,33.148,9.055,48.701c5.983,14.957,13.356,29.366,19.152,44.388c6.803,17.633,12.481,35.696,18.811,53.516
			c2.849,8.019,6.06,15.909,9.192,23.822c0.316,0.797,1.188,1.419,1.896,2.01c6.728,5.607,11.771,12.08,11.013,21.496
			c-0.114,1.417-0.198,3.062-0.948,4.155c-1.771,2.58-1.001,4.953-0.254,7.547c1.407,4.888,2.813,9.793,3.827,14.771
			c0.91,4.471-0.188,5.375-4.763,4.516c-0.2,1.863-0.213,3.763-0.664,5.55c-0.319,1.269-1.234,2.386-1.884,3.568
			c-1.05-1.003-2.688-1.839-3.033-3.046c-0.841-2.943-1.313-6.045-1.515-9.109c-0.349-5.304-2.296-9.967-4.642-14.53
			c-0.305,0.058-0.608,0.115-0.913,0.174c0.575,5.627,1.233,11.249,1.688,16.886c0.193,2.405,0.262,4.903-0.19,7.25
			c-0.26,1.35-1.674,2.477-2.568,3.704c-0.88-1.271-2.334-2.459-2.535-3.83c-0.74-5.032-0.886-10.15-1.608-15.186
			c-0.474-3.281-1.56-6.472-2.371-9.704c-0.464,0.044-0.929,0.09-1.395,0.135c-0.271,3.022-0.583,6.04-0.803,9.065
			c-0.294,4.079-0.291,8.196-0.892,12.227c-0.213,1.426-1.822,2.643-2.794,3.955c-1.197-1.301-3.087-2.435-3.448-3.937
			c-0.74-3.078-0.712-6.351-0.897-9.55c-0.103-1.768-0.138-3.559,0.038-5.314c0.601-6.002-0.178-11.52-3.689-16.755
			c-3.253-4.849-2.8-10.623-2.103-16.154c1.022-8.12-0.542-15.496-4.797-22.564c-8.047-13.366-15.704-26.926-24.813-39.676
			c-7.194-10.069-13.108-21.203-14.594-33.815c-0.577-4.903-1.886-9.246-3.862-13.705c-5.244-11.824-10.018-23.856-15.012-35.792
			c-0.504-1.203-1.249-2.306-2.404-4.405c-0.624,3.082-1.097,5.241-1.494,7.415c-1.935,10.555-3.759,21.13-5.826,31.659
			c-0.59,3.008-1.559,6.032-2.906,8.776c-1.388,2.825-1.628,5.542-1.462,8.619c0.721,13.386,1.057,26.793,1.823,40.176
			c0.244,4.267,0.573,8.846,2.271,12.655c5.306,11.903,7.31,24.543,9.61,37.167c1.707,9.359,3.947,18.629,5.408,28.024
			c2.635,16.951,2.048,33.945,0.444,51c-2.047,21.77-1.971,43.563,0.995,65.304c0.928,6.785,0.938,13.691,1.764,20.497
			c0.483,3.984,1.63,7.908,2.702,11.8c0.761,2.756,1.925,5.398,2.858,8.108c1.873,5.43,3.448,10.979,5.626,16.281
			c3.549,8.645,5.066,17.668,5.461,26.875c0.788,18.377,1.085,36.776,1.997,55.146c0.576,11.604,1.983,23.167,2.854,34.761
			c0.438,5.852,1.201,11.811,0.528,17.571c-0.557,4.773-2.419,9.649-4.765,13.894c-2.545,4.605-11.362,4.802-16.547,0.966
			c-5.333-3.944-7.889-9.741-9.961-15.749c-2.781-8.061-2.172-16.148,0.311-24.163c0.982-3.168,1.86-6.419,3.3-9.383
			c1.895-3.901,1.464-7.473,0.16-11.434c-5.578-16.969-12.958-33.163-20.579-49.269c-3.942-8.332-5.818-17.084-5.888-26.346
			c-0.054-7.301-0.539-14.624-1.34-21.882c-0.405-3.675-1.511-7.412-3.023-10.798c-7.074-15.843-12.091-32.273-15.49-49.282
			c-1.183-5.912-3.16-11.799-5.674-17.286c-7.581-16.563-10.627-34.21-12.776-52.019c-1.152-9.538-0.655-19.271-1.604-28.845
			c-0.463-4.678-2.527-9.196-3.96-14.104c-3.284,5.82-5.77,11.229-5.825,17.755c-0.138,16.356-2.844,32.342-7.689,48.013
			c-3.952,12.779-7.404,25.715-10.978,38.609c-3.631,13.104-7.079,26.258-10.745,39.352c-0.86,3.074-1.895,6.217-3.499,8.945
			c-6.313,10.734-8.298,22.502-9.081,34.67c-0.793,12.333-3.206,24.172-8.789,35.489c-6.99,14.168-12.851,28.891-19.389,43.287
			c-2.05,4.513-1.89,8.128,0.919,12.533c5.051,7.927,7.289,16.849,5.274,26.335c-0.495,2.334-1.521,4.654-2.75,6.714
			c-3.006,5.028-6.164,9.978-9.476,14.811c-2.458,3.586-5.943,6.043-10.247,6.864c-7.612,1.451-13.048-3.272-13.253-12.573
			c-0.259-11.709,0.271-23.441,0.705-35.154c0.374-10.066,1.55-20.121,1.558-30.182c0.017-20.558,2.934-40.86,4.442-61.285
			c1.025-13.896,7.218-25.694,13.101-37.646c3.211-6.527,3.704-12.968,3.228-19.941c-0.29-4.229-0.104-8.717,1-12.78
			c4.528-16.657,4.926-33.431,2.263-50.353c-2.547-16.195-1.87-32.446-1.523-48.74c0.438-20.605,5.844-40.232,10.757-59.973
			c3.042-12.225,6.591-24.323,9.734-36.523c0.906-3.515,1.626-7.182,1.688-10.792c0.183-10.741,0.001-21.488-0.06-32.233
			c-0.004-0.642-0.045-1.356-0.318-1.914c-5.271-10.761-5.972-22.598-8.121-34.098c-0.889-4.75-2.029-9.453-3.056-14.177
			C233.619,216.606,233.337,216.586,233.056,216.567z M257.144,136.084c1.385,1.829,2.948,4.08,4.701,6.173
			c4.541,5.426,8.425,11.267,9.353,18.4c1.184,9.097,1.8,18.265,2.81,27.386c0.285,2.574,0.546,5.391,1.752,7.583
			c8,14.538,16.225,28.954,24.47,43.356c0.923,1.613,2.434,2.89,3.91,4.598c3.963-7.615,7.536-14.603,11.222-21.529
			c4.466-8.388,9.083-16.695,13.508-25.104c0.944-1.795,1.668-3.834,1.938-5.837c1.024-7.66,1.524-15.399,2.782-23.018
			c1.634-9.903,4.511-19.386,11.478-27.137c1.259-1.4,1.809-3.44,2.756-5.326c-1.453-0.69-2.555-1.175-3.622-1.725
			c-7.113-3.661-14.364-7.165-17.45-15.406c-0.177-0.47-0.717-0.795-1.048-1.219c-2.477-3.179-5.214-6.198-7.321-9.605
			c-1.521-2.458-2.2-5.436-3.228-8.109c-8.194,1.787-16.15,4.052-24.221,0.159c-2.544,7.197-5.492,13.939-12.571,17.725
			c-0.245,0.131-0.288,0.596-0.5,0.844c-1.99,2.35-3.714,5.032-6.06,6.953C267.206,129.005,262.263,132.339,257.144,136.084z
			 M244.265,487.987c0.313,0.212,0.626,0.424,0.94,0.635c0,6.475,0.208,12.958-0.063,19.421c-0.243,5.809-0.494,11.637,2.281,16.879
			c3.288,6.209,7.093,12.146,10.674,18.199c0.424-0.023,0.849-0.048,1.273-0.071c2.708-6.474,5.975-12.776,8-19.458
			c3.423-11.296,5.916-22.87,9.063-34.254c4.594-16.617,9.036-33.292,14.266-49.713c4.531-14.23,4.836-28.855,6.049-43.706
			c-8.979,8.813-14.012,11.478-23.676,12.39c-4.074,0.385-8.176,0.471-12.257,0.785c-7.754,0.6-14.879,2.497-19.417,9.639
			c-0.563,0.886-1.404,1.596-2.25,2.533c-4.515-6.771-6.794-14.774-13.301-20.537c-0.16,1.02-0.267,1.53-0.316,2.049
			c-2.021,20.842-0.49,41.519,2.177,62.23c1.47,11.416,0.626,22.979-1.777,34.317c-0.769,3.628-1.809,7.2-2.725,10.797
			C231.703,503.977,239.524,497.481,244.265,487.987z M239.79,418.093c4.655-7.631,11.529-9.782,18.998-10.663
			c3.405-0.402,6.845-0.705,10.271-0.729c13.115-0.091,22.99-5.394,28.933-17.401c2.447-4.944,5.293-9.589,4.859-15.568
			c-0.64-8.81-0.638-17.663-1.055-26.491c-0.145-3.069-0.059-6.395-1.207-9.13c-6.576-15.653-18.115-25.041-35.33-26.81
			c-6.571-0.675-12.857,0.341-18.461,3.885c-1.691,1.069-3.408,3.02-3.915,4.892c-3.93,14.508-7.803,29.042-11.208,43.68
			c-2.249,9.671-3.648,19.539-5.518,29.3c-0.666,3.475,0.565,5.839,2.982,8.413c2.676,2.851,4.429,6.571,6.555,9.933
			C236.919,413.333,238.085,415.301,239.79,418.093z M310.104,398.617c0,1.844-0.051,3.689,0.008,5.531
			c0.821,25.853,4.379,51.143,15.383,74.905c1.104,2.386,2.592,4.741,3.031,7.264c2.805,16.06,6.735,31.793,12.806,46.949
			c1.253,3.128,2.682,6.187,4.028,9.276c0.361,0.024,0.723,0.05,1.083,0.074c4.287-6.689,9.949-12.976,10.74-21.149
			c0.954-9.857,0.413-19.861,0.518-29.805c0.01-0.92,0.001-1.842,0.001-2.764c0.308-0.053,0.614-0.104,0.922-0.156
			c5.283,7.646,10.189,15.617,17.961,21.701c-0.794-8.434-2.047-16.337-2.17-24.26c-0.224-14.271,0.055-28.559,0.457-42.829
			c0.311-10.943,1.188-21.87,1.672-32.813c0.075-1.73-0.608-3.498-0.998-5.544c-5.842,4.454-9.291,9.772-10.988,17.068
			c-1.554-1.915-2.467-2.979-3.315-4.095c-3.691-4.848-8.612-7.134-14.665-7.057c-2.657,0.034-5.314,0.118-7.974,0.182
			C327.277,411.369,317.171,408.93,310.104,398.617z M362.65,416.771c3.748-4.431,7.218-8.668,10.849-12.764
			c1.866-2.105,2.705-4.189,2.144-7.117c-2.358-12.269-4.519-24.576-6.722-36.874c-1.774-9.899-2.956-19.909-6.992-29.305
			c-1.731-4.03-2.584-8.429-3.994-12.606c-0.352-1.038-1.131-2.344-2.04-2.704c-2.941-1.164-6.019-2.685-9.071-2.754
			c-17.882-0.411-37.501,9.716-41.935,30.79c-3.684,17.499-1.759,34.783,5.975,51.152c4.646,9.833,12.655,14.396,23.358,14.557
			c3.102,0.045,6.217,0.174,9.306-0.033C351.307,408.592,358.033,410.503,362.65,416.771z M302.533,245.264
			c-2.001-2.852-3.703-4.91-5.005-7.194c-7.785-13.647-15.578-27.293-23.118-41.076c-1.456-2.66-3.117-3.261-5.539-2.333
			c-2.769,1.061-5.504,2.283-8.088,3.731c-8.541,4.788-17.099,6.707-25.963,0.833c-0.695-0.461-1.572-0.649-2.851-1.158
			c0.243,1.705,0.364,2.989,0.616,4.247c2.843,14.202,5.971,28.354,8.476,42.614c1.814,10.326,5.339,19.751,11.15,28.488
			c2.732,4.11,4.713,8.757,6.746,13.289c2.424,5.402,4.539,10.943,6.853,16.58c0.538-1.098,0.807-2.133,1.437-2.852
			c6.495-7.403,8.056-16.468,9.146-25.822c1.351-11.59,6.291-20.588,18.342-24.411C297.596,249.292,299.991,246.918,302.533,245.264
			z M369.628,200.3c-9.375,5.791-17.771,5.184-25.86-1.059c-1.299-1.003-2.821-1.756-4.319-2.455
			c-5.179-2.415-7.366-2.002-10.057,2.92c-6.892,12.611-13.606,25.323-20.188,38.099c-4.382,8.508-5.575,6.939,3.416,12.393
			c7.6,4.608,12.841,10.849,14.662,19.584c0.808,3.865,0.87,7.881,1.347,11.819c0.326,2.719,0.136,5.749,1.311,8.065
			c2.607,5.147,5.928,9.933,9.216,15.285c3.338-14.73,11.121-26.989,17.037-40.063c1.761-3.892,3.28-7.997,4.159-12.164
			c2.03-9.624,3.641-19.337,5.346-29.027C367.031,216.109,368.254,208.502,369.628,200.3z M303.789,339.939
			c5.338-15.458,16.405-24.137,31.682-28.108c0.857-0.223,2.11-2.03,1.905-2.719c-0.997-3.33-1.798-7.013-3.835-9.677
			c-4.942-6.462-7.064-13.29-6.971-21.525c0.118-10.336-4.018-19.17-13.159-25.01c-2.701-1.727-5.316-3.599-8.082-5.217
			c-0.738-0.433-2.077-0.555-2.804-0.175c-3.594,1.885-6.93,4.317-10.629,5.932c-5.304,2.315-9.104,5.942-11.021,11.289
			c-1.258,3.509-2.202,7.204-2.704,10.894c-1.232,9.064-2.696,17.924-8.948,25.247c-1.17,1.371-1.23,3.688-1.807,5.568
			c-0.696,2.271-0.063,3.265,2.492,3.752c12.245,2.336,21.938,8.581,28.336,19.475C300.131,332.871,301.787,336.211,303.789,339.939
			z M204.495,600.309c8.958-1.409,15.208-6.125,20.752-12.768c0.433,3.125,0.641,5.441,1.087,7.712
			c1.284,6.53,7.877,13.053,14.123,13.832c1.042,0.13,2.86-0.377,3.207-1.113c4.749-10.109,9.237-20.228,10.082-31.708
			c0.719-9.78,2.612-19.477,3.956-29.214c0.098-0.71,0.209-1.624-0.133-2.157c-4.416-6.909-8.912-13.769-13.198-20.349
			c-1.136,2.612-2.458,5.658-4.125,9.49c-2.921-9.825-5.542-18.638-8.302-27.912c-1.881,1.602-3.075,2.974-4.567,3.821
			c-4.044,2.295-4.869,5.525-4.091,9.939c1.073,6.104,0.399,12.016-2.772,17.66c-2.811,4.999-5.125,10.302-7.349,15.6
			c-1.833,4.368-3.932,8.813-4.651,13.422C206.807,577.486,205.848,588.525,204.495,600.309z M330.887,63.452
			c0.329-0.068,0.658-0.135,0.985-0.203c-1.511-6.411-2.63-12.95-4.655-19.194c-1.6-4.927-5.041-8.909-10.018-10.981
			c-11.844-4.931-23.165-3.414-33.889,3.284c-3.629,2.266-5.862,5.715-6.769,9.885c-1.795,8.261-2.654,16.61-1.751,25.06
			c0.092,0.864,0.561,2.039,1.229,2.433c3.87,2.282,5.729,5.979,7.549,9.821c1.844,3.891,3.586,7.914,6.067,11.385
			c1.453,2.035,4.151,4.149,6.479,4.389c4.633,0.478,9.401-0.28,14.108-0.59c4.598-0.303,7.313-2.935,9.188-7.024
			c2.394-5.218,4.597-10.683,7.959-15.247C330.412,72.338,330.982,68.134,330.887,63.452z M204.345,602.159
			c-0.451,6.215-1.041,12.159-1.281,18.118c-0.559,13.828-0.843,27.667-1.438,41.491c-0.486,11.269-1.437,22.518-1.813,33.785
			c-0.127,3.813,0.482,7.765,1.448,11.473c1.418,5.443,6.567,7.984,11.681,5.636c2.896-1.33,5.729-3.491,7.705-5.98
			c3.282-4.133,5.9-8.8,8.712-13.296c5.976-9.556,3.802-27.31-5.116-36.188c-1.913,11.668-3.717,22.665-5.52,33.662
			c-0.388-0.058-0.776-0.112-1.164-0.169c0.252-2.783,0.47-5.57,0.763-8.351c1.695-16.058,5.422-31.489,13.007-45.937
			c4.194-7.988,7.572-16.406,11.424-24.861c-11.037-1.962-17.009-8.466-18.978-18.973
			C217.802,597.091,212.199,601.479,204.345,602.159z M358.038,526.881c-3.44,6.043-6.71,11.664-9.828,17.367
			c-0.595,1.086-0.914,2.521-0.816,3.754c0.724,9.141,2.188,18.266,2.252,27.404c0.081,11.675,3.618,22.17,8.73,32.339
			c0.395,0.783,1.831,1.589,2.694,1.501c6.141-0.625,12.416-6.346,13.583-12.449c0.608-3.188,0.722-6.473,1.062-9.739
			c0.378,0.086,0.688,0.064,0.764,0.188c0.513,0.832,0.981,1.689,1.455,2.546c2.934,5.306,7.505,8.665,13.102,10.606
			c2.885,1,4.258-0.115,4.045-3.078c-0.434-6.067-0.13-12.375-1.74-18.133c-3.857-13.784-8.696-27.293-13.026-40.948
			c-1.021-3.228-1.849-6.562-2.304-9.907c-0.4-2.94-0.33-5.979-0.156-8.956c0.323-5.539-3.251-8.386-7.065-11.277
			c-1.681,5.063-3.471,9.814-4.815,14.689c-1.322,4.793-2.192,9.709-3.262,14.571c-0.194,0.07-0.39,0.143-0.584,0.214
			C360.819,534.156,359.515,530.74,358.038,526.881z M180.665,249.884c-0.291-0.189-0.582-0.377-0.873-0.566
			c-15.675,30.918-27.85,63.242-38.547,96.648c7.425,1.574,14.04,2.976,20.456,4.336c5.978-15.345,14.608-28.443,24.452-40.731
			c8.409-10.496,14.685-22.101,19.292-34.63c1.352-3.673,1.747-7.697,2.734-12.271c-2.044,1.057-3.07,1.931-4.2,2.099
			c-2.324,0.345-5.007,0.998-6.932,0.146c-0.975-0.432-1.179-3.983-0.77-5.919c1.693-7.996,3.892-15.883,5.63-23.87
			c0.986-4.534,1.442-9.184,2.139-13.782c-0.504-0.182-1.008-0.363-1.512-0.545c-0.958,1.328-2.331,2.525-2.797,4.007
			c-1.52,4.842-3.1,9.721-3.928,14.707c-1.1,6.63-1.485,13.377-2.235,20.067c-0.264,2.34-0.619,4.822-3.419,5.493
			c-2.779,0.665-4.059-1.422-4.936-3.471C183.57,257.752,182.169,253.796,180.665,249.884z M377.921,661.521
			c-0.464-0.021-0.926-0.038-1.388-0.059c-1.467,4.371-3.079,8.7-4.374,13.121c-3.178,10.847-1.541,21.116,4.567,30.519
			c1.685,2.594,4.174,4.924,6.793,6.589c4.01,2.549,10.586,1.601,12.335-1.831c1.976-3.875,3.898-8.141,4.283-12.376
			c0.546-6.012-0.208-12.161-0.633-18.235c-0.968-13.806-2.27-27.591-3.06-41.406c-0.677-11.821-0.83-23.675-1.216-35.521
			c-6.208,0.373-8.266-0.692-18.127-9.365c-0.427,11.04-7.405,16.049-16.447,18.515c4.151,10.339,8.229,20.489,12.307,30.644
			c6.301,15.689,9.399,32.012,9.576,48.898c0.012,1.057-0.241,2.113-0.373,3.17c-0.276-0.014-0.555-0.025-0.831-0.039
			C380.196,683.271,379.059,672.396,377.921,661.521z M416.704,248.264c-0.431,1.659-0.574,2.65-0.942,3.551
			c-1.542,3.772-3.061,7.56-4.809,11.237c-0.385,0.809-1.741,1.716-2.531,1.617c-0.806-0.101-1.799-1.268-2.113-2.175
			c-0.611-1.751-1.031-3.637-1.13-5.488c-0.324-6.084-0.412-12.181-0.7-18.268c-0.271-5.688-1.125-11.26-4.373-16.138
			c-0.507-0.761-1.41-1.257-2.131-1.875c-0.668,0.817-1.845,1.595-1.91,2.458c-0.198,2.617-0.341,5.341,0.163,7.891
			c2.061,10.414,4.41,20.77,6.563,31.166c0.653,3.153-0.286,4.302-3.424,3.895c-2.454-0.319-4.823-1.303-7.564-2.087
			c0.153,2.083,0.091,4.091,0.479,6.006c2.729,13.381,9.307,24.958,16.869,36.119c5.27,7.778,10.274,15.741,15.2,23.743
			c3.804,6.179,7.3,12.546,11.025,18.992c5.7-2.544,11.206-5.001,16.7-7.454C442.196,309.607,432.174,278.272,416.704,248.264z
			 M229.581,177.413c-10.214,5.215-19.854,10.09-29.415,15.115c-0.691,0.364-0.943,1.788-1.169,2.772
			c-0.989,4.286-1.453,8.748-2.916,12.858c-3.358,9.437-7.063,18.756-10.865,28.025c-3.13,7.631-3.281,15.077,0.654,22.38
			c0.955,1.773,2.592,3.18,3.915,4.755c0.646-1.973,1.784-3.927,1.859-5.92c0.419-11.138,2.457-21.954,6.054-32.471
			c0.586-1.71,1.747-3.338,3.005-4.66c0.693-0.73,2.259-1.186,3.209-0.933c0.7,0.188,1.48,1.731,1.463,2.656
			c-0.063,3.193-0.111,6.457-0.798,9.553c-2.06,9.275-4.471,18.471-6.601,27.73c-0.317,1.382,0.136,2.942,0.232,4.42
			c1.602-0.137,3.403,0.155,4.771-0.484c5.595-2.621,9.854-6.866,12.472-12.406c5.568-11.79,10.906-23.69,16.174-35.619
			c0.703-1.591,0.952-3.732,0.544-5.407c-2.191-8.997-3-18.087-2.599-27.315C229.638,180.927,229.581,179.387,229.581,177.413z
			 M401.175,264.026c-0.106-0.842-0.144-1.5-0.278-2.137c-2.207-10.377-4.586-20.722-6.541-31.146
			c-0.548-2.926-0.401-6.236,0.404-9.096c0.999-3.548,4.537-3.883,6.385-0.703c1.697,2.92,3.509,6.123,3.923,9.372
			c0.974,7.659,1.088,15.423,1.667,23.136c0.233,3.105,0.771,6.188,1.17,9.282c0.395-0.01,0.786-0.021,1.181-0.031
			c4.38-7.171,7.441-14.636,3.911-23.239c-5.544-13.515-8.473-27.65-10.389-42.059c-0.15-1.13-1.2-2.505-2.222-3.096
			c-8.22-4.762-16.533-9.358-24.813-14.02c-0.896-0.505-1.749-1.093-2.722-1.706c-0.313,5.54-0.455,10.623-0.928,15.674
			c-0.484,5.172-1.45,10.301-1.875,15.476c-0.144,1.746,0.47,3.688,1.187,5.344c1.888,4.358,4.191,8.537,6.023,12.915
			c3.883,9.273,7.543,18.64,11.349,27.946C390.898,261.539,395.677,264.668,401.175,264.026z M259.831,142.864
			c-2.939,6.876-8.496,10.526-14.615,13.691c-3.02,1.562-5.869,3.539-8.549,5.643c-3.479,2.729-5.378,6.466-5.388,10.949
			c-0.015,6.862,0.064,13.727,0.223,20.587c0.019,0.827,0.556,1.967,1.221,2.405c8.574,5.671,17.301,6.514,26.468,1.105
			c3.919-2.313,8.274-3.889,13.18-6.142C270.66,175.062,273.229,157.17,259.831,142.864z M198.557,190.158
			c0.376,0.246,0.752,0.491,1.129,0.737c9.427-5.056,18.881-10.061,28.233-15.253c0.877-0.487,1.48-2.131,1.555-3.281
			c0.273-4.215,1.772-7.917,4.986-10.507c3.501-2.822,7.322-5.302,11.214-7.569c4.75-2.767,9.141-5.699,11.854-10.761
			c1.776-3.312-1.076-4.867-2.27-6.904c-0.45-0.767-2.706-0.783-4.084-0.637c-3.376,0.356-6.709,1.351-10.081,1.475
			c-11.212,0.414-21.421,3.172-29.583,11.413c-1.87,1.887-4.29,3.368-5.711,5.527c-2.188,3.323-4.772,6.913-5.339,10.668
			C199.213,173.338,199.121,181.784,198.557,190.158z M332.546,192.21c4.792,2.171,8.762,3.892,12.655,5.768
			c1.984,0.956,3.766,2.338,5.758,3.274c5.268,2.476,10.411,1.332,15.267-1.157c2.271-1.164,3.921-3.12,3.938-6.071
			c0.044-7.732,0.428-15.469,0.262-23.195c-0.113-5.252-3.061-8.734-8.086-10.607c-7.563-2.817-15.085-5.8-19.308-14.168
			C335.114,161.282,333.15,177.051,332.546,192.21z M349.206,137.157c-0.506,1.026-1.143,2.562-1.982,3.976
			c-2.663,4.478-2.773,6.282,1.427,9.417c3.919,2.926,8.312,5.512,12.88,7.208c7.62,2.828,10.931,8.012,11.091,15.85
			c0.026,1.262,0.938,3.021,1.983,3.666c7.709,4.75,15.545,9.294,23.372,13.851c1.104,0.643,2.374,1.003,3.629,1.521
			c0-6.608,0.198-12.873-0.053-19.121c-0.271-6.689-4.302-12.006-7.36-17.573c-5.354-9.752-14.059-15.035-24.858-16.72
			C362.849,138.22,356.261,137.861,349.206,137.157z M152.169,414.215c0.507,0.02,1.015,0.039,1.521,0.059
			c0.512-1.974,1.334-3.926,1.465-5.926c0.245-3.748-0.106-7.535,0.156-11.279c0.269-3.818-0.042-8.161,1.674-11.306
			c5.875-10.768,2.672-22.358,4.437-33.544c-6.927-1.508-13.484-2.936-19.528-4.252c-10.787,19.235-19.886,38.654-20.009,61.146
			c1.337-1.701,2.747-3.48,3.421-5.506c1.952-5.859,3.553-11.835,5.427-17.724c0.391-1.224,1.361-2.263,2.065-3.387
			c0.338,0.138,0.678,0.275,1.016,0.414c-4.252,10.511-8.261,21.065-6.639,32.671c4.14-9.871,4.059-21.206,11.57-30.871
			c-0.233,11.744-1.275,22.754,1.466,33.602c1.066-3.643,1.112-7.349,1.727-10.955c0.881-5.176,2.058-10.313,3.407-15.389
			c0.252-0.946,1.987-2.171,2.912-2.073c0.894,0.095,2.171,1.649,2.328,2.704c0.58,3.917,0.812,7.892,1.089,11.851
			C151.901,407.7,152.008,410.959,152.169,414.215z M472.795,408.893c0.542-0.266,1.084-0.529,1.627-0.795
			c-5.319-22.208-11.524-44.126-21.784-64.88c-5.765,2.596-11.356,5.115-16.313,7.347c0,6.349,0.313,12.094-0.089,17.79
			c-0.391,5.546,0.955,10.372,3.514,15.234c1.523,2.899,2.337,6.394,2.593,9.688c0.411,5.282-0.042,10.624,0.154,15.928
			c0.076,2.044,0.931,4.059,1.431,6.087c0.449-0.026,0.897-0.056,1.349-0.083c0.399-2.084,1.004-4.154,1.158-6.256
			c0.323-4.413,0.166-8.872,0.695-13.253c0.267-2.202,1.603-4.274,2.456-6.405c1.381,1.966,3.515,3.767,3.992,5.932
			c1.138,5.154,1.477,10.482,2.169,15.735c0.318,2.416,0.71,4.823,1.068,7.233c0.383-0.041,0.766-0.084,1.147-0.125
			c1.715-10.506-2.704-20.98-0.683-31.614c2.794,4.661,5.633,9.269,7.147,14.276c1.543,5.101,1.783,10.594,2.593,15.914
			c0.371-0.061,0.741-0.121,1.112-0.183c1.698-5.628,0.525-11.05-1.495-16.351c-1.493-3.915-3.275-7.719-4.812-11.621
			c-0.374-0.951-0.277-2.087-0.398-3.138c0.439-0.072,0.881-0.145,1.319-0.216c2.356,6.356,4.639,12.741,7.117,19.049
			C470.531,405.879,471.803,407.33,472.795,408.893z M247.936,269.869c-1.859,14.929,1.276,29.348-2.829,42.742
			c6.632-1.421,13.109-2.81,19.977-4.282C261.146,295.203,255.926,282.236,247.936,269.869z M355.9,271.768
			c-7.27,12.339-13.848,24.841-16.097,38.31c6.021,0.921,11.769,1.801,17.646,2.7C356.944,299.381,356.422,285.574,355.9,271.768z
			 M279.812,114.042c4.714-3.953,7.975-8.879,9.034-15.095c0.118-0.688-0.128-1.539-0.456-2.188
			c-2.581-5.119-5.104-10.272-7.899-15.274c-1.217-2.175-3.027-4.018-4.778-6.282c-2.455,4.168-2.079,13.474,0.429,16.291
			c0.785,0.88,2.467,0.962,4.519,1.684C282.956,99.597,281.21,106.686,279.812,114.042z M331.065,74.197
			c-1.221,1.74-2.29,2.962-3.021,4.361c-2.858,5.479-5.122,11.347-8.568,16.415c-2.428,3.571-2.007,6.452-0.522,9.736
			c1.644,3.634,3.047,7.472,6.389,9.901c0-7.589,0-15.018,0-21.838c1.399-0.215,3.139-0.068,3.36-0.58
			C331.093,86.688,334.054,81.189,331.065,74.197z M243.958,493.34c-3.686,4.023-6.755,7.292-9.694,10.675
			c-0.456,0.523-0.609,1.656-0.399,2.357c2.176,7.266,4.454,14.502,7.01,22.727C244.766,517.005,242.791,505.422,243.958,493.34z
			 M361.698,531.152c0.485-2.12,0.747-3.766,1.243-5.337c1.759-5.582,3.658-11.121,5.356-16.723c0.361-1.192,0.63-2.941,0.031-3.81
			c-2.475-3.592-5.298-6.944-8.461-10.981c0,1.771,0.006,2.818-0.001,3.867c-0.045,6.523,0.331,13.088-0.28,19.56
			C359.151,522.332,359.813,526.467,361.698,531.152z M123.403,381.548c3.888-8.274,7.713-16.417,11.59-24.669
			C128.318,359.377,122.696,371.498,123.403,381.548z M469.906,383.121c3.588-6.818-0.137-17.893-7.136-21.945
			C465.104,368.348,467.498,375.715,469.906,383.121z"/>
		<path id="trapezius" fill="#FFFFFF" d="M257.144,136.084c5.119-3.745,10.063-7.079,14.657-10.839
			c2.346-1.92,4.069-4.603,6.06-6.953c0.21-0.248,0.255-0.712,0.5-0.844c7.079-3.786,10.026-10.528,12.571-17.725
			c8.069,3.894,16.025,1.628,24.221-0.159c1.026,2.673,1.706,5.651,3.228,8.109c2.107,3.407,4.846,6.426,7.321,9.605
			c0.331,0.424,0.871,0.749,1.047,1.219c3.087,8.241,10.338,11.746,17.451,15.406c1.067,0.55,2.169,1.035,3.622,1.725
			c-0.948,1.886-1.497,3.925-2.756,5.326c-6.967,7.751-9.844,17.234-11.478,27.137c-1.258,7.618-1.758,15.358-2.782,23.018
			c-0.27,2.002-0.992,4.042-1.938,5.837c-4.425,8.409-9.042,16.716-13.508,25.104c-3.687,6.926-7.259,13.914-11.222,21.529
			c-1.477-1.708-2.987-2.985-3.91-4.598c-8.246-14.402-16.47-28.818-24.47-43.356c-1.206-2.192-1.467-5.009-1.752-7.583
			c-1.01-9.121-1.625-18.29-2.81-27.386c-0.927-7.133-4.812-12.975-9.353-18.4C260.092,140.164,258.528,137.913,257.144,136.084z"/>
		<path id="left-hamstrings" fill="#FFFFFF" d="M244.265,487.987c-4.741,9.494-12.562,15.988-21.058,22.136
			c0.916-3.597,1.956-7.169,2.725-10.797c2.403-11.339,3.247-22.901,1.777-34.317c-2.667-20.713-4.198-41.39-2.177-62.231
			c0.05-0.518,0.156-1.028,0.316-2.049c6.506,5.764,8.786,13.769,13.301,20.538c0.846-0.938,1.688-1.647,2.25-2.534
			c4.537-7.141,11.662-9.039,19.417-9.638c4.082-0.313,8.184-0.399,12.256-0.784c9.665-0.914,14.696-3.576,23.677-12.391
			c-1.212,14.85-1.518,29.475-6.049,43.706c-5.229,16.421-9.672,33.096-14.266,49.713c-3.146,11.384-5.64,22.958-9.063,34.254
			c-2.025,6.682-5.292,12.984-8,19.458c-0.425,0.023-0.85,0.048-1.273,0.071c-3.581-6.055-7.386-11.99-10.674-18.199
			c-2.775-5.242-2.524-11.07-2.281-16.879c0.271-6.463,0.063-12.946,0.063-19.421C244.891,488.411,244.578,488.199,244.265,487.987z
			"/>
		<path id="left-glutes" fill="#FFFFFF" d="M239.79,418.093c-1.705-2.792-2.871-4.76-4.094-6.69
			c-2.126-3.36-3.879-7.082-6.555-9.933c-2.417-2.573-3.648-4.938-2.982-8.413c1.869-9.762,3.269-19.629,5.518-29.3
			c3.404-14.638,7.278-29.171,11.208-43.68c0.507-1.872,2.224-3.823,3.915-4.892c5.604-3.544,11.89-4.56,18.461-3.885
			c17.215,1.769,28.754,11.157,35.33,26.81c1.148,2.735,1.063,6.061,1.207,9.13c0.417,8.828,0.415,17.681,1.055,26.491
			c0.435,5.979-2.412,10.624-4.859,15.568c-5.942,12.008-15.817,17.311-28.933,17.401c-3.426,0.022-6.865,0.325-10.271,0.729
			C251.32,408.311,244.446,410.462,239.79,418.093z"/>
		<path id="right-hamstrings" fill="#FFFFFF" d="M310.104,398.617c7.067,10.313,17.174,12.752,28.498,12.482
			c2.658-0.063,5.314-0.146,7.974-0.182c6.053-0.077,10.974,2.209,14.665,7.057c0.85,1.114,1.763,2.18,3.315,4.095
			c1.697-7.296,5.146-12.614,10.988-17.068c0.39,2.046,1.073,3.813,0.997,5.544c-0.481,10.941-1.36,21.868-1.671,32.813
			c-0.402,14.271-0.681,28.559-0.457,42.83c0.123,7.922,1.376,15.825,2.169,24.259c-7.771-6.084-12.677-14.056-17.96-21.701
			c-0.308,0.052-0.614,0.104-0.922,0.156c0,0.922,0.009,1.844-0.001,2.764c-0.104,9.942,0.438,19.946-0.518,29.805
			c-0.791,8.175-6.453,14.46-10.74,21.149c-0.359-0.024-0.722-0.05-1.083-0.074c-1.348-3.091-2.776-6.147-4.028-9.275
			c-6.069-15.157-10.001-30.892-12.806-46.95c-0.439-2.521-1.927-4.878-3.031-7.264c-11.004-23.764-14.562-49.054-15.383-74.905
			C310.053,402.307,310.104,400.461,310.104,398.617z"/>
		<path id="right-glutes" fill="#FFFFFF" d="M362.65,416.771c-4.616-6.269-11.344-8.18-19.124-7.658
			c-3.089,0.207-6.204,0.078-9.306,0.033c-10.703-0.158-18.712-4.724-23.358-14.557c-7.733-16.369-9.658-33.654-5.975-51.152
			c4.434-21.074,24.053-31.201,41.935-30.79c3.054,0.07,6.13,1.59,9.071,2.754c0.909,0.36,1.688,1.666,2.04,2.704
			c1.41,4.177,2.263,8.577,3.994,12.606c4.036,9.396,5.218,19.405,6.992,29.305c2.203,12.298,4.362,24.605,6.722,36.874
			c0.563,2.928-0.276,5.012-2.144,7.117C369.867,408.104,366.398,412.341,362.65,416.771z"/>
		<path id="left_x28_lower_x29_-lats" fill="#FFFFFF" d="M302.533,245.264c-2.542,1.654-4.938,4.028-7.799,4.936
			c-12.051,3.823-16.991,12.821-18.342,24.411c-1.09,9.354-2.65,18.419-9.146,25.822c-0.63,0.718-0.898,1.754-1.437,2.852
			c-2.313-5.636-4.428-11.177-6.853-16.58c-2.033-4.532-4.014-9.179-6.746-13.289c-5.812-8.737-9.336-18.163-11.15-28.488
			c-2.504-14.261-5.632-28.412-8.476-42.614c-0.252-1.258-0.373-2.542-0.616-4.247c1.277,0.509,2.154,0.697,2.851,1.158
			c8.865,5.875,17.422,3.956,25.963-0.833c2.584-1.448,5.32-2.67,8.088-3.731c2.421-0.928,4.083-0.327,5.539,2.333
			c7.54,13.783,15.333,27.429,23.118,41.076C298.83,240.354,300.532,242.412,302.533,245.264z"/>
		<path id="right_x28_lower_x29_-lats" fill="#FFFFFF" d="M369.628,200.3c-1.374,8.203-2.597,15.81-3.933,23.397
			c-1.705,9.69-3.314,19.404-5.346,29.027c-0.879,4.167-2.398,8.272-4.159,12.164c-5.916,13.073-13.699,25.332-17.037,40.063
			c-3.288-5.352-6.607-10.138-9.216-15.285c-1.175-2.316-0.983-5.347-1.311-8.065c-0.477-3.938-0.539-7.955-1.347-11.819
			c-1.821-8.735-7.063-14.976-14.662-19.584c-8.991-5.453-7.798-3.885-3.416-12.393c6.581-12.776,13.296-25.488,20.188-38.099
			c2.689-4.923,4.878-5.335,10.057-2.92c1.498,0.699,3.021,1.452,4.319,2.455C351.857,205.484,360.253,206.09,369.628,200.3z"/>
		<path id="lowerBack" fill="#FFFFFF" d="M303.789,339.939c-2.002-3.729-3.658-7.068-5.543-10.275
			c-6.397-10.894-16.091-17.138-28.336-19.475c-2.555-0.488-3.188-1.482-2.492-3.752c0.576-1.88,0.637-4.197,1.807-5.568
			c6.252-7.322,7.715-16.182,8.948-25.247c0.502-3.69,1.446-7.385,2.704-10.894c1.916-5.347,5.717-8.974,11.021-11.289
			c3.7-1.615,7.036-4.047,10.629-5.932c0.727-0.38,2.064-0.258,2.804,0.175c2.765,1.618,5.38,3.49,8.082,5.217
			c9.143,5.84,13.277,14.674,13.159,25.01c-0.095,8.236,2.027,15.063,6.972,21.525c2.036,2.665,2.837,6.348,3.834,9.677
			c0.205,0.688-1.048,2.496-1.905,2.719C320.195,315.802,309.127,324.482,303.789,339.939z"/>
		<path id="left-calves" fill="#FFFFFF" d="M204.495,600.309c1.353-11.782,2.312-22.821,4.02-33.743
			c0.721-4.607,2.818-9.054,4.651-13.422c2.224-5.298,4.538-10.601,7.349-15.6c3.172-5.646,3.846-11.558,2.772-17.66
			c-0.777-4.414,0.047-7.646,4.091-9.939c1.493-0.849,2.687-2.221,4.567-3.821c2.76,9.275,5.38,18.087,8.302,27.912
			c1.666-3.832,2.988-6.878,4.125-9.49c4.287,6.58,8.782,13.438,13.198,20.35c0.342,0.532,0.229,1.446,0.133,2.156
			c-1.344,9.737-3.237,19.434-3.956,29.214c-0.845,11.48-5.333,21.599-10.082,31.708c-0.347,0.736-2.165,1.243-3.207,1.113
			c-6.246-0.779-12.839-7.302-14.123-13.832c-0.446-2.271-0.655-4.587-1.087-7.712C219.703,594.184,213.454,598.898,204.495,600.309
			z"/>
		<path fill="#FFFFFF" d="M330.887,63.452c0.096,4.682-0.475,8.886-3.517,13.017c-3.362,4.564-5.565,10.029-7.959,15.247
			c-1.875,4.09-4.59,6.721-9.188,7.024c-4.708,0.31-9.476,1.067-14.107,0.59c-2.328-0.24-5.025-2.354-6.479-4.389
			c-2.48-3.471-4.224-7.494-6.067-11.385c-1.819-3.842-3.68-7.539-7.549-9.821c-0.669-0.394-1.138-1.569-1.229-2.433
			c-0.902-8.45-0.043-16.799,1.751-25.06c0.905-4.17,3.14-7.619,6.769-9.885c10.724-6.697,22.045-8.214,33.889-3.284
			c4.977,2.072,8.418,6.054,10.018,10.981c2.025,6.244,3.146,12.783,4.655,19.194C331.545,63.317,331.216,63.384,330.887,63.452z"/>
		<path fill="#FFFFFF" d="M204.345,602.159c7.854-0.682,13.458-5.068,19.43-9.589c1.969,10.507,7.94,17.011,18.978,18.973
			c-3.852,8.455-7.229,16.873-11.424,24.861c-7.585,14.447-11.313,29.879-13.007,45.937c-0.293,2.779-0.511,5.566-0.763,8.352
			c0.388,0.056,0.776,0.11,1.164,0.168c1.803-10.997,3.606-21.994,5.52-33.662c8.918,8.879,11.092,26.633,5.116,36.188
			c-2.812,4.496-5.43,9.163-8.712,13.296c-1.978,2.489-4.809,4.65-7.705,5.98c-5.113,2.35-10.263-0.191-11.681-5.636
			c-0.966-3.708-1.575-7.659-1.448-11.473c0.377-11.269,1.327-22.518,1.813-33.784c0.596-13.825,0.881-27.664,1.438-41.492
			C203.304,614.318,203.894,608.374,204.345,602.159z M206.196,605.547c0.213,1.022,0.449,2.039,0.632,3.066
			c1.421,8.045,3.448,16.041,4.124,24.147c1.579,18.97-0.338,37.748-4.662,56.281c-0.183,0.783-0.13,1.62-0.251,3.354
			C214.766,680.651,214.937,613.934,206.196,605.547z"/>
		<path id="right-calves" fill="#FFFFFF" d="M358.038,526.881c1.477,3.859,2.78,7.275,4.087,10.691
			c0.194-0.071,0.39-0.144,0.584-0.214c1.068-4.862,1.938-9.778,3.262-14.571c1.346-4.875,3.136-9.628,4.815-14.689
			c3.814,2.893,7.39,5.738,7.065,11.277c-0.174,2.977-0.244,6.016,0.156,8.956c0.455,3.347,1.28,6.681,2.304,9.907
			c4.33,13.655,9.169,27.164,13.026,40.948c1.61,5.758,1.308,12.064,1.74,18.133c0.213,2.963-1.16,4.077-4.045,3.077
			c-5.597-1.94-10.168-5.301-13.102-10.605c-0.475-0.855-0.942-1.714-1.455-2.546c-0.076-0.123-0.386-0.103-0.764-0.188
			c-0.341,3.268-0.452,6.552-1.062,9.739c-1.167,6.104-7.442,11.824-13.583,12.449c-0.863,0.088-2.301-0.718-2.695-1.501
			c-5.111-10.169-8.648-20.664-8.729-32.339c-0.063-9.14-1.528-18.265-2.252-27.404c-0.098-1.231,0.223-2.668,0.815-3.754
			C351.328,538.545,354.598,532.924,358.038,526.881z"/>
		<path id="left-forearms" fill="#FFFFFF" d="M180.665,249.884c1.504,3.912,2.904,7.868,4.555,11.718
			c0.877,2.049,2.156,4.136,4.936,3.471c2.8-0.67,3.155-3.153,3.419-5.493c0.75-6.69,1.136-13.437,2.235-20.067
			c0.828-4.986,2.408-9.865,3.928-14.707c0.466-1.481,1.839-2.679,2.797-4.007c0.504,0.182,1.008,0.363,1.512,0.545
			c-0.696,4.598-1.151,9.248-2.14,13.782c-1.737,7.986-3.936,15.874-5.629,23.87c-0.41,1.937-0.206,5.487,0.77,5.919
			c1.925,0.852,4.607,0.198,6.932-0.146c1.13-0.167,2.156-1.042,4.2-2.099c-0.987,4.574-1.383,8.598-2.734,12.271
			c-4.607,12.529-10.882,24.134-19.292,34.63c-9.844,12.288-18.475,25.386-24.452,40.731c-6.416-1.36-13.03-2.762-20.456-4.336
			c10.698-33.407,22.873-65.73,38.547-96.648C180.083,249.506,180.374,249.694,180.665,249.884z M197.217,272.029
			c-0.38-0.196-0.759-0.391-1.139-0.586c-0.577,0.872-1.218,1.709-1.723,2.621c-10.86,19.637-21.752,39.257-32.506,58.952
			c-1.629,2.983-2.652,6.305-3.856,9.507c-0.298,0.788-0.209,1.72-0.318,2.775C170.977,320.649,184.097,296.339,197.217,272.029z"/>
		<path fill="#FFFFFF" d="M377.921,661.521c1.138,10.873,2.274,21.748,3.414,32.622c0.276,0.014,0.555,0.025,0.831,0.039
			c0.132-1.057,0.385-2.113,0.373-3.17c-0.177-16.888-3.275-33.209-9.576-48.898c-4.076-10.153-8.154-20.306-12.307-30.644
			c9.042-2.466,16.021-7.475,16.447-18.515c9.861,8.673,11.919,9.738,18.127,9.365c0.386,11.846,0.539,23.697,1.216,35.521
			c0.79,13.815,2.092,27.602,3.06,41.406c0.425,6.074,1.179,12.225,0.633,18.235c-0.385,4.235-2.309,8.501-4.283,12.376
			c-1.749,3.432-8.325,4.38-12.335,1.83c-2.619-1.664-5.108-3.994-6.793-6.588c-6.108-9.401-7.745-19.672-4.567-30.519
			c1.295-4.421,2.907-8.75,4.374-13.121C376.995,661.483,377.457,661.502,377.921,661.521z M393.728,604.646
			c-6.472,5.822-7.401,78.06-1.125,86.745C390.326,662.454,387.316,633.505,393.728,604.646z"/>
		<path id="right-forearms" fill="#FFFFFF" d="M416.704,248.264c15.47,30.009,25.491,61.344,35.372,93.191
			c-5.494,2.453-11,4.91-16.699,7.454c-3.728-6.446-7.224-12.813-11.026-18.992c-4.926-8.002-9.931-15.965-15.2-23.743
			c-7.563-11.161-14.14-22.738-16.869-36.119c-0.39-1.916-0.326-3.923-0.479-6.006c2.742,0.785,5.11,1.769,7.564,2.087
			c3.138,0.407,4.077-0.742,3.424-3.895c-2.151-10.396-4.502-20.752-6.563-31.166c-0.504-2.55-0.361-5.274-0.163-7.891
			c0.065-0.863,1.242-1.641,1.91-2.458c0.721,0.618,1.624,1.114,2.131,1.875c3.248,4.878,4.104,10.45,4.373,16.138
			c0.288,6.086,0.376,12.183,0.7,18.268c0.099,1.851,0.519,3.736,1.13,5.488c0.314,0.907,1.309,2.074,2.113,2.175
			c0.79,0.099,2.146-0.808,2.531-1.617c1.748-3.677,3.267-7.465,4.809-11.237C416.13,250.914,416.274,249.922,416.704,248.264z
			 M403.885,273.231c-0.256,0.274-0.514,0.548-0.771,0.821c11.854,23.122,23.705,46.243,35.559,69.364
			c0.469-0.231,0.938-0.462,1.407-0.694c-2.181-4.654-4.22-9.381-6.564-13.949c-6.871-13.378-13.886-26.683-20.798-40.039
			c-2.286-4.417-4.384-8.933-6.682-13.343C405.589,274.531,404.615,273.943,403.885,273.231z"/>
		<path id="left-triceps" fill="#FFFFFF" d="M229.581,177.413c0,1.974,0.057,3.515-0.011,5.05
			c-0.401,9.228,0.407,18.318,2.599,27.315c0.408,1.675,0.159,3.816-0.544,5.407c-5.268,11.929-10.605,23.829-16.174,35.619
			c-2.617,5.54-6.876,9.785-12.472,12.406c-1.366,0.64-3.169,0.348-4.771,0.484c-0.098-1.478-0.551-3.038-0.232-4.42
			c2.13-9.259,4.542-18.455,6.601-27.73c0.687-3.096,0.733-6.36,0.798-9.553c0.019-0.924-0.763-2.468-1.463-2.656
			c-0.95-0.253-2.516,0.203-3.209,0.933c-1.258,1.322-2.419,2.949-3.004,4.66c-3.598,10.517-5.636,21.333-6.055,32.471
			c-0.075,1.994-1.212,3.948-1.859,5.92c-1.323-1.576-2.96-2.982-3.915-4.755c-3.936-7.304-3.784-14.75-0.654-22.38
			c3.803-9.269,7.507-18.588,10.865-28.025c1.463-4.11,1.927-8.572,2.916-12.858c0.227-0.984,0.479-2.408,1.169-2.772
			C209.727,187.502,219.367,182.627,229.581,177.413z"/>
		<path id="right-triceps" fill="#FFFFFF" d="M401.175,264.026c-5.498,0.642-10.276-2.487-12.566-8.087
			c-3.806-9.306-7.466-18.672-11.349-27.946c-1.832-4.378-4.137-8.557-6.023-12.915c-0.717-1.656-1.329-3.598-1.187-5.344
			c0.425-5.175,1.391-10.304,1.875-15.476c0.473-5.052,0.613-10.135,0.928-15.674c0.973,0.613,1.824,1.201,2.722,1.706
			c8.278,4.661,16.593,9.257,24.813,14.02c1.021,0.591,2.07,1.966,2.222,3.096c1.916,14.409,4.845,28.544,10.389,42.059
			c3.53,8.603,0.469,16.067-3.911,23.239c-0.395,0.01-0.786,0.021-1.181,0.031c-0.398-3.093-0.937-6.176-1.17-9.282
			c-0.579-7.713-0.692-15.477-1.667-23.136c-0.414-3.25-2.226-6.452-3.923-9.372c-1.848-3.18-5.386-2.846-6.385,0.703
			c-0.807,2.859-0.952,6.17-0.404,9.096c1.955,10.423,4.334,20.768,6.541,31.146C401.031,262.525,401.068,263.184,401.175,264.026z"
			/>
		<path id="left_x28_upper_x29_-lats" fill="#FFFFFF" d="M259.831,142.864c13.397,14.306,10.829,32.198,12.539,48.238
			c-4.904,2.253-9.26,3.83-13.18,6.142c-9.167,5.408-17.894,4.566-26.468-1.105c-0.665-0.438-1.202-1.579-1.221-2.405
			c-0.158-6.861-0.237-13.725-0.223-20.587c0.01-4.483,1.909-8.219,5.388-10.949c2.68-2.104,5.529-4.081,8.549-5.643
			C251.335,153.39,256.892,149.74,259.831,142.864z"/>
		<path id="left-shoulders" fill="#FFFFFF" d="M198.557,190.158c0.563-8.374,0.656-16.82,1.903-25.091
			c0.566-3.755,3.15-7.345,5.339-10.668c1.421-2.159,3.841-3.64,5.711-5.527c8.163-8.241,18.371-10.999,29.583-11.413
			c3.372-0.124,6.705-1.118,10.081-1.475c1.379-0.146,3.635-0.13,4.084,0.637c1.193,2.037,4.046,3.592,2.27,6.904
			c-2.714,5.062-7.104,7.995-11.854,10.761c-3.894,2.267-7.713,4.747-11.214,7.569c-3.213,2.59-4.713,6.292-4.986,10.507
			c-0.074,1.149-0.678,2.794-1.555,3.281c-9.353,5.192-18.807,10.197-28.233,15.253C199.31,190.649,198.934,190.403,198.557,190.158
			z"/>
		<path id="right_x28_upper_x29_-lats" fill="#FFFFFF" d="M332.546,192.21c0.604-15.159,2.567-30.928,10.484-46.155
			c4.223,8.368,11.743,11.351,19.308,14.168c5.025,1.873,7.973,5.355,8.086,10.607c0.166,7.726-0.218,15.462-0.262,23.195
			c-0.017,2.951-1.667,4.907-3.938,6.071c-4.854,2.489-9.999,3.633-15.268,1.157c-1.991-0.937-3.771-2.318-5.757-3.274
			C341.308,196.102,337.338,194.381,332.546,192.21z"/>
		<path id="right-shoulders" fill="#FFFFFF" d="M349.206,137.157c7.055,0.704,13.643,1.063,20.126,2.075
			c10.802,1.686,19.506,6.968,24.859,16.72c3.06,5.567,7.091,10.884,7.36,17.573c0.251,6.248,0.053,12.513,0.053,19.121
			c-1.255-0.518-2.524-0.878-3.629-1.521c-7.827-4.557-15.663-9.101-23.372-13.851c-1.047-0.645-1.957-2.404-1.983-3.666
			c-0.16-7.838-3.471-13.022-11.091-15.85c-4.568-1.696-8.961-4.282-12.88-7.208c-4.2-3.135-4.09-4.939-1.427-9.417
			C348.064,139.719,348.7,138.184,349.206,137.157z"/>
		<path fill="#FFFFFF" d="M152.169,414.215c-0.161-3.256-0.269-6.515-0.496-9.766c-0.277-3.959-0.509-7.934-1.089-11.851
			c-0.156-1.055-1.435-2.609-2.328-2.704c-0.924-0.098-2.66,1.126-2.912,2.073c-1.35,5.074-2.525,10.213-3.407,15.389
			c-0.614,3.606-0.659,7.313-1.727,10.955c-2.741-10.848-1.699-21.857-1.466-33.602c-7.512,9.665-7.431,21-11.57,30.871
			c-1.622-11.605,2.387-22.161,6.639-32.671c-0.338-0.138-0.678-0.276-1.016-0.414c-0.704,1.124-1.675,2.163-2.065,3.387
			c-1.874,5.888-3.475,11.864-5.427,17.724c-0.675,2.024-2.084,3.805-3.421,5.506c0.123-22.491,9.222-41.91,20.009-61.146
			c6.044,1.316,12.602,2.744,19.528,4.252c-1.766,11.186,1.438,22.776-4.437,33.544c-1.716,3.146-1.406,7.488-1.674,11.306
			c-0.263,3.744,0.089,7.531-0.156,11.279c-0.131,2-0.953,3.952-1.465,5.926C153.184,414.254,152.677,414.234,152.169,414.215z"/>
		<path fill="#FFFFFF" d="M472.795,408.893c-0.992-1.563-2.264-3.014-2.929-4.703c-2.479-6.309-4.761-12.693-7.116-19.049
			c-0.439,0.071-0.881,0.144-1.32,0.216c0.121,1.051,0.024,2.187,0.398,3.138c1.535,3.902,3.317,7.706,4.812,11.622
			c2.021,5.3,3.194,10.722,1.495,16.35c-0.371,0.062-0.741,0.122-1.112,0.183c-0.81-5.32-1.05-10.813-2.593-15.914
			c-1.516-5.007-4.354-9.615-7.147-14.276c-2.021,10.633,2.396,21.108,0.683,31.614c-0.383,0.042-0.766,0.084-1.147,0.125
			c-0.357-2.41-0.75-4.817-1.067-7.233c-0.693-5.253-1.032-10.581-2.17-15.735c-0.479-2.165-2.611-3.965-3.992-5.932
			c-0.854,2.13-2.189,4.203-2.456,6.405c-0.529,4.381-0.372,8.84-0.695,13.253c-0.154,2.102-0.759,4.172-1.158,6.256
			c-0.45,0.027-0.898,0.057-1.349,0.083c-0.5-2.028-1.354-4.043-1.43-6.087c-0.197-5.307,0.256-10.646-0.155-15.928
			c-0.256-3.294-1.068-6.789-2.593-9.688c-2.559-4.863-3.903-9.688-3.514-15.234c0.4-5.695,0.089-11.441,0.089-17.79
			c4.955-2.232,10.549-4.751,16.313-7.347c10.26,20.753,16.465,42.671,21.784,64.879
			C473.879,408.361,473.337,408.627,472.795,408.893z"/>
		<path id="left-obliques" fill="#FFFFFF" d="M247.936,269.869c7.99,12.367,13.21,25.333,17.147,38.46
			c-6.866,1.472-13.345,2.86-19.977,4.282C249.212,299.217,246.076,284.798,247.936,269.869z"/>
		<path id="right-obliques" fill="#FFFFFF" d="M355.9,271.768c0.521,13.806,1.044,27.613,1.551,41.01
			c-5.879-0.899-11.625-1.779-17.646-2.7C342.053,296.609,348.631,284.107,355.9,271.768z"/>
		<path fill="#FFFFFF" d="M279.812,114.042c1.398-7.356,3.145-14.445,0.848-20.864c-2.052-0.721-3.733-0.803-4.519-1.684
			c-2.508-2.817-2.883-12.122-0.429-16.291c1.75,2.265,3.562,4.107,4.777,6.282c2.796,5.002,5.319,10.155,7.9,15.274
			c0.328,0.648,0.574,1.499,0.456,2.187C287.786,105.162,284.525,110.089,279.812,114.042z"/>
		<path fill="#FFFFFF" d="M331.065,74.197c2.988,6.992,0.027,12.491-2.362,17.996c-0.223,0.511-1.961,0.364-3.36,0.58
			c0,6.82,0,14.249,0,21.838c-3.342-2.429-4.745-6.267-6.389-9.901c-1.483-3.284-1.904-6.165,0.522-9.736
			c3.446-5.068,5.71-10.936,8.568-16.415C328.775,77.159,329.845,75.938,331.065,74.197z"/>
		<path fill="#FFFFFF" d="M243.958,493.34c-1.167,12.082,0.808,23.665-3.085,35.759c-2.556-8.225-4.833-15.461-7.01-22.727
			c-0.21-0.701-0.056-1.834,0.399-2.357C237.203,500.632,240.273,497.363,243.958,493.34z"/>
		<path fill="#FFFFFF" d="M361.698,531.152c-1.886-4.687-2.547-8.82-2.11-13.425c0.611-6.471,0.235-13.034,0.28-19.559
			c0.008-1.049,0.001-2.098,0.001-3.867c3.163,4.037,5.986,7.391,8.461,10.981c0.599,0.867,0.33,2.616-0.031,3.81
			c-1.698,5.602-3.599,11.141-5.356,16.722C362.445,527.388,362.184,529.032,361.698,531.152z"/>
		<path fill="#FFFFFF" d="M123.403,381.548c-0.707-10.05,4.915-22.171,11.59-24.669C131.115,365.131,127.29,373.273,123.403,381.548
			z"/>
		<path fill="#FFFFFF" d="M469.906,383.121c-2.408-7.406-4.804-14.773-7.136-21.945
			C469.771,365.228,473.494,376.303,469.906,383.121z"/>
		<path d="M206.196,605.547c8.741,8.387,8.57,75.104-0.158,86.853c0.121-1.735,0.068-2.572,0.251-3.355
			c4.324-18.533,6.241-37.313,4.662-56.281c-0.676-8.106-2.702-16.104-4.124-24.147
			C206.645,607.586,206.408,606.569,206.196,605.547z"/>
		<path d="M197.217,272.029c-13.12,24.31-26.24,48.62-39.542,73.269c0.109-1.055,0.021-1.987,0.318-2.775
			c1.205-3.202,2.228-6.523,3.856-9.507c10.754-19.695,21.646-39.315,32.506-58.952c0.505-0.912,1.146-1.749,1.723-2.621
			C196.458,271.639,196.837,271.833,197.217,272.029z"/>
		<path d="M393.728,604.646c-6.411,28.858-3.4,57.809-1.125,86.745C386.325,682.705,387.256,610.469,393.728,604.646z"/>
		<path d="M403.885,273.231c0.73,0.712,1.704,1.299,2.151,2.159c2.298,4.411,4.396,8.926,6.682,13.343
			c6.912,13.356,13.927,26.661,20.798,40.039c2.346,4.568,4.385,9.295,6.564,13.949c-0.47,0.232-0.938,0.463-1.407,0.694
			c-11.854-23.121-23.705-46.242-35.559-69.364C403.371,273.779,403.629,273.505,403.885,273.231z"/>
	</g>
</g>
</svg>
